<svg width="106" height="26" viewBox="0 0 106 26" fill="none" xmlns="http://www.w3.org/2000/svg">
<path d="M33.76 17C33.6427 17 33.552 16.968 33.488 16.904C33.424 16.8293 33.392 16.7387 33.392 16.632V6.168C33.392 6.06133 33.424 5.976 33.488 5.912C33.552 5.83733 33.6427 5.8 33.76 5.8H34.608C34.7147 5.8 34.8 5.83733 34.864 5.912C34.9387 5.976 34.976 6.06133 34.976 6.168V16.632C34.976 16.7387 34.9387 16.8293 34.864 16.904C34.8 16.968 34.7147 17 34.608 17H33.76ZM37.747 17C37.6403 17 37.5497 16.968 37.475 16.904C37.411 16.8293 37.379 16.7387 37.379 16.632V9.048C37.379 8.94133 37.411 8.856 37.475 8.792C37.5497 8.71733 37.6403 8.68 37.747 8.68H38.499C38.6057 8.68 38.691 8.71733 38.755 8.792C38.8297 8.856 38.867 8.94133 38.867 9.048V9.752C39.1443 9.38933 39.491 9.096 39.907 8.872C40.3337 8.63733 40.8777 8.52 41.539 8.52C42.2323 8.52 42.819 8.67467 43.299 8.984C43.7897 9.28267 44.1577 9.704 44.403 10.248C44.6483 10.7813 44.771 11.4053 44.771 12.12V16.632C44.771 16.7387 44.739 16.8293 44.675 16.904C44.611 16.968 44.5257 17 44.419 17H43.619C43.5123 17 43.4217 16.968 43.347 16.904C43.283 16.8293 43.251 16.7387 43.251 16.632V12.2C43.251 11.4533 43.0697 10.872 42.707 10.456C42.3443 10.0293 41.811 9.816 41.107 9.816C40.4457 9.816 39.9123 10.0293 39.507 10.456C39.1123 10.872 38.915 11.4533 38.915 12.2V16.632C38.915 16.7387 38.8777 16.8293 38.803 16.904C38.739 16.968 38.6537 17 38.547 17H37.747ZM49.7821 17.16C49.1848 17.16 48.6728 17.0853 48.2461 16.936C47.8195 16.7867 47.4728 16.6053 47.2061 16.392C46.9395 16.1787 46.7368 15.9653 46.5981 15.752C46.4701 15.5387 46.4008 15.368 46.3901 15.24C46.3795 15.1227 46.4168 15.032 46.5021 14.968C46.5875 14.904 46.6728 14.872 46.7581 14.872H47.4621C47.5261 14.872 47.5741 14.8827 47.6061 14.904C47.6488 14.9147 47.7021 14.9573 47.7661 15.032C47.9048 15.1813 48.0595 15.3307 48.2301 15.48C48.4008 15.6293 48.6088 15.752 48.8541 15.848C49.1101 15.944 49.4248 15.992 49.7981 15.992C50.3421 15.992 50.7901 15.8907 51.1421 15.688C51.4941 15.4747 51.6701 15.1653 51.6701 14.76C51.6701 14.4933 51.5955 14.28 51.4461 14.12C51.3075 13.96 51.0515 13.816 50.6781 13.688C50.3155 13.56 49.8141 13.4267 49.1741 13.288C48.5341 13.1387 48.0275 12.9573 47.6541 12.744C47.2808 12.52 47.0141 12.2587 46.8541 11.96C46.6941 11.6507 46.6141 11.304 46.6141 10.92C46.6141 10.5253 46.7315 10.1467 46.9661 9.784C47.2008 9.41067 47.5421 9.10667 47.9901 8.872C48.4488 8.63733 49.0195 8.52 49.7021 8.52C50.2568 8.52 50.7315 8.58933 51.1261 8.728C51.5208 8.86667 51.8461 9.04267 52.1021 9.256C52.3581 9.45867 52.5501 9.66133 52.6781 9.864C52.8061 10.0667 52.8755 10.2373 52.8861 10.376C52.8968 10.4827 52.8648 10.5733 52.7901 10.648C52.7155 10.712 52.6301 10.744 52.5341 10.744H51.8621C51.7875 10.744 51.7235 10.728 51.6701 10.696C51.6275 10.664 51.5848 10.6267 51.5421 10.584C51.4355 10.4453 51.3075 10.3067 51.1581 10.168C51.0195 10.0293 50.8328 9.91733 50.5981 9.832C50.3741 9.736 50.0755 9.688 49.7021 9.688C49.1688 9.688 48.7688 9.8 48.5021 10.024C48.2355 10.248 48.1021 10.5307 48.1021 10.872C48.1021 11.0747 48.1608 11.256 48.2781 11.416C48.3955 11.576 48.6195 11.72 48.9501 11.848C49.2808 11.976 49.7715 12.1147 50.4221 12.264C51.1261 12.4027 51.6808 12.5893 52.0861 12.824C52.4915 13.0587 52.7795 13.3307 52.9501 13.64C53.1208 13.9493 53.2061 14.3067 53.2061 14.712C53.2061 15.16 53.0728 15.5707 52.8061 15.944C52.5501 16.3173 52.1661 16.616 51.6541 16.84C51.1528 17.0533 50.5288 17.16 49.7821 17.16ZM58.1107 17C57.5134 17 57.0281 16.888 56.6547 16.664C56.2814 16.4293 56.0094 16.104 55.8387 15.688C55.6681 15.2613 55.5827 14.76 55.5827 14.184V9.96H54.3347C54.2281 9.96 54.1374 9.928 54.0627 9.864C53.9987 9.78933 53.9667 9.69867 53.9667 9.592V9.048C53.9667 8.94133 53.9987 8.856 54.0627 8.792C54.1374 8.71733 54.2281 8.68 54.3347 8.68H55.5827V6.008C55.5827 5.90133 55.6147 5.816 55.6787 5.752C55.7534 5.67733 55.8441 5.64 55.9507 5.64H56.7027C56.8094 5.64 56.8947 5.67733 56.9587 5.752C57.0334 5.816 57.0707 5.90133 57.0707 6.008V8.68H59.0547C59.1614 8.68 59.2467 8.71733 59.3107 8.792C59.3854 8.856 59.4227 8.94133 59.4227 9.048V9.592C59.4227 9.69867 59.3854 9.78933 59.3107 9.864C59.2467 9.928 59.1614 9.96 59.0547 9.96H57.0707V14.072C57.0707 14.5733 57.1561 14.968 57.3267 15.256C57.4974 15.544 57.8014 15.688 58.2387 15.688H59.2147C59.3214 15.688 59.4067 15.7253 59.4707 15.8C59.5454 15.864 59.5827 15.9493 59.5827 16.056V16.632C59.5827 16.7387 59.5454 16.8293 59.4707 16.904C59.4067 16.968 59.3214 17 59.2147 17H58.1107ZM63.2528 17.16C62.7194 17.16 62.2341 17.0533 61.7968 16.84C61.3594 16.6267 61.0074 16.3387 60.7408 15.976C60.4741 15.6133 60.3408 15.2027 60.3408 14.744C60.3408 14.008 60.6394 13.4213 61.2368 12.984C61.8341 12.5467 62.6128 12.2587 63.5728 12.12L65.9568 11.784V11.32C65.9568 10.808 65.8074 10.408 65.5088 10.12C65.2208 9.832 64.7461 9.688 64.0848 9.688C63.6048 9.688 63.2154 9.784 62.9168 9.976C62.6288 10.168 62.4261 10.4133 62.3088 10.712C62.2448 10.872 62.1328 10.952 61.9728 10.952H61.2528C61.1354 10.952 61.0448 10.92 60.9808 10.856C60.9274 10.7813 60.9008 10.696 60.9008 10.6C60.9008 10.44 60.9594 10.2427 61.0768 10.008C61.2048 9.77333 61.3968 9.544 61.6528 9.32C61.9088 9.096 62.2341 8.90933 62.6288 8.76C63.0341 8.6 63.5248 8.52 64.1008 8.52C64.7408 8.52 65.2794 8.60533 65.7168 8.776C66.1541 8.936 66.4954 9.15467 66.7408 9.432C66.9968 9.70933 67.1781 10.024 67.2848 10.376C67.4021 10.728 67.4608 11.0853 67.4608 11.448V16.632C67.4608 16.7387 67.4234 16.8293 67.3488 16.904C67.2848 16.968 67.1994 17 67.0928 17H66.3568C66.2394 17 66.1488 16.968 66.0848 16.904C66.0208 16.8293 65.9888 16.7387 65.9888 16.632V15.944C65.8501 16.136 65.6634 16.328 65.4288 16.52C65.1941 16.7013 64.9008 16.856 64.5488 16.984C64.1968 17.1013 63.7648 17.16 63.2528 17.16ZM63.5888 15.96C64.0261 15.96 64.4261 15.8693 64.7888 15.688C65.1514 15.496 65.4341 15.2027 65.6368 14.808C65.8501 14.4133 65.9568 13.9173 65.9568 13.32V12.872L64.1008 13.144C63.3434 13.2507 62.7728 13.432 62.3888 13.688C62.0048 13.9333 61.8128 14.248 61.8128 14.632C61.8128 14.9307 61.8981 15.1813 62.0688 15.384C62.2501 15.576 62.4741 15.72 62.7408 15.816C63.0181 15.912 63.3008 15.96 63.5888 15.96ZM72.9889 20.52C72.2635 20.52 71.6662 20.424 71.1969 20.232C70.7382 20.04 70.3755 19.8053 70.1089 19.528C69.8529 19.2613 69.6662 18.9893 69.5489 18.712C69.4422 18.4453 69.3835 18.232 69.3729 18.072C69.3622 17.9653 69.3942 17.8747 69.4689 17.8C69.5542 17.7253 69.6449 17.688 69.7409 17.688H70.5089C70.6049 17.688 70.6849 17.7093 70.7489 17.752C70.8129 17.7947 70.8662 17.8853 70.9089 18.024C70.9729 18.184 71.0689 18.36 71.1969 18.552C71.3249 18.7547 71.5222 18.9253 71.7889 19.064C72.0555 19.2133 72.4289 19.288 72.9089 19.288C73.4102 19.288 73.8315 19.2187 74.1729 19.08C74.5142 18.952 74.7702 18.7173 74.9409 18.376C75.1222 18.0453 75.2129 17.5867 75.2129 17V15.912C74.9569 16.2427 74.6209 16.52 74.2049 16.744C73.7889 16.9573 73.2662 17.064 72.6369 17.064C72.0395 17.064 71.5275 16.9627 71.1009 16.76C70.6742 16.5467 70.3222 16.264 70.0449 15.912C69.7782 15.5493 69.5755 15.1387 69.4369 14.68C69.3089 14.2213 69.2342 13.7413 69.2129 13.24C69.2022 12.9413 69.2022 12.648 69.2129 12.36C69.2342 11.8587 69.3089 11.3787 69.4369 10.92C69.5755 10.4613 69.7782 10.0507 70.0449 9.688C70.3222 9.32533 70.6742 9.04267 71.1009 8.84C71.5275 8.62667 72.0395 8.52 72.6369 8.52C73.2769 8.52 73.8049 8.64267 74.2209 8.888C74.6475 9.12267 74.9942 9.41067 75.2609 9.752V9.064C75.2609 8.95733 75.2929 8.86667 75.3569 8.792C75.4315 8.71733 75.5222 8.68 75.6289 8.68H76.3649C76.4715 8.68 76.5622 8.71733 76.6369 8.792C76.7115 8.86667 76.7489 8.95733 76.7489 9.064V16.824C76.7489 17.5387 76.6262 18.1733 76.3809 18.728C76.1462 19.2827 75.7515 19.72 75.1969 20.04C74.6529 20.36 73.9169 20.52 72.9889 20.52ZM72.9569 15.784C73.4902 15.784 73.9169 15.6613 74.2369 15.416C74.5675 15.1707 74.8075 14.8613 74.9569 14.488C75.1169 14.1147 75.2022 13.736 75.2129 13.352C75.2235 13.2027 75.2289 13.0213 75.2289 12.808C75.2289 12.584 75.2235 12.3973 75.2129 12.248C75.2022 11.864 75.1169 11.4853 74.9569 11.112C74.8075 10.7387 74.5675 10.4293 74.2369 10.184C73.9169 9.93867 73.4902 9.816 72.9569 9.816C72.4235 9.816 71.9969 9.93867 71.6769 10.184C71.3569 10.4187 71.1275 10.7333 70.9889 11.128C70.8502 11.512 70.7702 11.928 70.7489 12.376C70.7382 12.6533 70.7382 12.936 70.7489 13.224C70.7702 13.672 70.8502 14.0933 70.9889 14.488C71.1275 14.872 71.3569 15.1867 71.6769 15.432C71.9969 15.6667 72.4235 15.784 72.9569 15.784ZM79.3157 17C79.2091 17 79.1184 16.968 79.0437 16.904C78.9797 16.8293 78.9477 16.7387 78.9477 16.632V9.064C78.9477 8.95733 78.9797 8.86667 79.0437 8.792C79.1184 8.71733 79.2091 8.68 79.3157 8.68H80.0517C80.1584 8.68 80.2491 8.71733 80.3237 8.792C80.3984 8.86667 80.4357 8.95733 80.4357 9.064V9.768C80.6491 9.40533 80.9424 9.13333 81.3157 8.952C81.6891 8.77067 82.1371 8.68 82.6597 8.68H83.2997C83.4064 8.68 83.4917 8.71733 83.5557 8.792C83.6197 8.856 83.6517 8.94133 83.6517 9.048V9.704C83.6517 9.81067 83.6197 9.896 83.5557 9.96C83.4917 10.024 83.4064 10.056 83.2997 10.056H82.3397C81.7637 10.056 81.3104 10.2267 80.9797 10.568C80.6491 10.8987 80.4837 11.352 80.4837 11.928V16.632C80.4837 16.7387 80.4464 16.8293 80.3717 16.904C80.2971 16.968 80.2064 17 80.0997 17H79.3157ZM87.0409 17.16C86.5075 17.16 86.0222 17.0533 85.5849 16.84C85.1475 16.6267 84.7955 16.3387 84.5289 15.976C84.2622 15.6133 84.1289 15.2027 84.1289 14.744C84.1289 14.008 84.4275 13.4213 85.0249 12.984C85.6222 12.5467 86.4009 12.2587 87.3609 12.12L89.7449 11.784V11.32C89.7449 10.808 89.5955 10.408 89.2969 10.12C89.0089 9.832 88.5342 9.688 87.8729 9.688C87.3929 9.688 87.0035 9.784 86.7049 9.976C86.4169 10.168 86.2142 10.4133 86.0969 10.712C86.0329 10.872 85.9209 10.952 85.7609 10.952H85.0409C84.9235 10.952 84.8329 10.92 84.7689 10.856C84.7155 10.7813 84.6889 10.696 84.6889 10.6C84.6889 10.44 84.7475 10.2427 84.8649 10.008C84.9929 9.77333 85.1849 9.544 85.4409 9.32C85.6969 9.096 86.0222 8.90933 86.4169 8.76C86.8222 8.6 87.3129 8.52 87.8889 8.52C88.5289 8.52 89.0675 8.60533 89.5049 8.776C89.9422 8.936 90.2835 9.15467 90.5289 9.432C90.7849 9.70933 90.9662 10.024 91.0729 10.376C91.1902 10.728 91.2489 11.0853 91.2489 11.448V16.632C91.2489 16.7387 91.2115 16.8293 91.1369 16.904C91.0729 16.968 90.9875 17 90.8809 17H90.1449C90.0275 17 89.9369 16.968 89.8729 16.904C89.8089 16.8293 89.7769 16.7387 89.7769 16.632V15.944C89.6382 16.136 89.4515 16.328 89.2169 16.52C88.9822 16.7013 88.6889 16.856 88.3369 16.984C87.9849 17.1013 87.5529 17.16 87.0409 17.16ZM87.3769 15.96C87.8142 15.96 88.2142 15.8693 88.5769 15.688C88.9395 15.496 89.2222 15.2027 89.4249 14.808C89.6382 14.4133 89.7449 13.9173 89.7449 13.32V12.872L87.8889 13.144C87.1315 13.2507 86.5609 13.432 86.1769 13.688C85.7929 13.9333 85.6009 14.248 85.6009 14.632C85.6009 14.9307 85.6862 15.1813 85.8569 15.384C86.0382 15.576 86.2622 15.72 86.5289 15.816C86.8062 15.912 87.0889 15.96 87.3769 15.96ZM93.737 17C93.6303 17 93.5397 16.968 93.465 16.904C93.401 16.8293 93.369 16.7387 93.369 16.632V9.048C93.369 8.94133 93.401 8.856 93.465 8.792C93.5397 8.71733 93.6303 8.68 93.737 8.68H94.457C94.5637 8.68 94.649 8.71733 94.713 8.792C94.7877 8.856 94.825 8.94133 94.825 9.048V9.608C95.0703 9.27733 95.3797 9.016 95.753 8.824C96.1263 8.62133 96.5743 8.52 97.097 8.52C98.3023 8.50933 99.1557 9 99.657 9.992C99.9023 9.544 100.26 9.18667 100.729 8.92C101.198 8.65333 101.732 8.52 102.329 8.52C102.884 8.52 103.385 8.648 103.833 8.904C104.292 9.16 104.649 9.54933 104.905 10.072C105.172 10.584 105.305 11.2293 105.305 12.008V16.632C105.305 16.7387 105.268 16.8293 105.193 16.904C105.129 16.968 105.044 17 104.937 17H104.185C104.078 17 103.988 16.968 103.913 16.904C103.849 16.8293 103.817 16.7387 103.817 16.632V12.152C103.817 11.5547 103.732 11.0853 103.561 10.744C103.39 10.4027 103.161 10.1627 102.873 10.024C102.585 9.88533 102.27 9.816 101.929 9.816C101.652 9.816 101.369 9.88533 101.081 10.024C100.793 10.1627 100.553 10.4027 100.361 10.744C100.18 11.0853 100.089 11.5547 100.089 12.152V16.632C100.089 16.7387 100.052 16.8293 99.977 16.904C99.913 16.968 99.8277 17 99.721 17H98.969C98.8623 17 98.7717 16.968 98.697 16.904C98.633 16.8293 98.601 16.7387 98.601 16.632V12.152C98.601 11.5547 98.5103 11.0853 98.329 10.744C98.1477 10.4027 97.913 10.1627 97.625 10.024C97.337 9.88533 97.033 9.816 96.713 9.816C96.4357 9.816 96.153 9.88533 95.865 10.024C95.577 10.1627 95.337 10.4027 95.145 10.744C94.9637 11.0853 94.873 11.5493 94.873 12.136V16.632C94.873 16.7387 94.8357 16.8293 94.761 16.904C94.697 16.968 94.6117 17 94.505 17H93.737Z" fill="white" fill-opacity="0.8"/>
<path fill-rule="evenodd" clip-rule="evenodd" d="M8 13C8 10.7909 9.79085 9 12 9C14.2091 9 16 10.7909 16 13C16 15.2091 14.2091 17 12 17C9.79085 17 8 15.2091 8 13ZM12 10.6C10.6745 10.6 9.6 11.6745 9.6 13C9.6 14.3255 10.6745 15.4 12 15.4C13.3255 15.4 14.4 14.3255 14.4 13C14.4 11.6745 13.3255 10.6 12 10.6Z" fill="white"/>
<path d="M17.2 8.6C17.2 9.04184 16.8418 9.4 16.4 9.4C15.9582 9.4 15.6 9.04184 15.6 8.6C15.6 8.15816 15.9582 7.8 16.4 7.8C16.8418 7.8 17.2 8.15816 17.2 8.6Z" fill="white"/>
<path fill-rule="evenodd" clip-rule="evenodd" d="M4 9C4 6.79086 5.79086 5 8 5H16C18.2091 5 20 6.79086 20 9V17C20 19.2091 18.2091 21 16 21H8C5.79086 21 4 19.2091 4 17V9ZM8 6.6C6.67452 6.6 5.6 7.67452 5.6 9V17C5.6 18.3255 6.67451 19.4 8 19.4H16C17.3255 19.4 18.4 18.3255 18.4 17V9C18.4 7.67451 17.3255 6.6 16 6.6H8Z" fill="white"/>
</svg>
