<svg width="99" height="26" viewBox="0 0 99 26" fill="none" xmlns="http://www.w3.org/2000/svg">
<path d="M36.208 17C36.1013 17 36.0107 16.968 35.936 16.904C35.872 16.8293 35.84 16.7387 35.84 16.632V7.224H32.768C32.6613 7.224 32.5707 7.192 32.496 7.128C32.432 7.05333 32.4 6.96267 32.4 6.856V6.184C32.4 6.06667 32.432 5.976 32.496 5.912C32.5707 5.83733 32.6613 5.8 32.768 5.8H40.48C40.5973 5.8 40.688 5.83733 40.752 5.912C40.8267 5.976 40.864 6.06667 40.864 6.184V6.856C40.864 6.96267 40.8267 7.05333 40.752 7.128C40.688 7.192 40.5973 7.224 40.48 7.224H37.424V16.632C37.424 16.7387 37.3867 16.8293 37.312 16.904C37.248 16.968 37.1573 17 37.04 17H36.208ZM44.0504 17.16C42.9517 17.16 42.077 16.824 41.4264 16.152C40.7757 15.4693 40.4184 14.5413 40.3544 13.368C40.3437 13.2293 40.3384 13.0533 40.3384 12.84C40.3384 12.616 40.3437 12.4347 40.3544 12.296C40.397 11.5387 40.573 10.8773 40.8824 10.312C41.1917 9.736 41.613 9.29333 42.1464 8.984C42.6904 8.67467 43.325 8.52 44.0504 8.52C44.861 8.52 45.5384 8.69067 46.0824 9.032C46.637 9.37333 47.0584 9.85867 47.3464 10.488C47.6344 11.1173 47.7784 11.8533 47.7784 12.696V12.968C47.7784 13.0853 47.741 13.176 47.6664 13.24C47.6024 13.304 47.517 13.336 47.4104 13.336H41.8744C41.8744 13.3467 41.8744 13.368 41.8744 13.4C41.8744 13.432 41.8744 13.4587 41.8744 13.48C41.8957 13.9173 41.9917 14.328 42.1624 14.712C42.333 15.0853 42.5784 15.3893 42.8984 15.624C43.2184 15.8587 43.6024 15.976 44.0504 15.976C44.4344 15.976 44.7544 15.9173 45.0104 15.8C45.2664 15.6827 45.4744 15.5547 45.6344 15.416C45.7944 15.2667 45.901 15.1547 45.9544 15.08C46.0504 14.9413 46.125 14.8613 46.1784 14.84C46.2317 14.808 46.317 14.792 46.4344 14.792H47.2024C47.309 14.792 47.3944 14.824 47.4584 14.888C47.533 14.9413 47.565 15.0213 47.5544 15.128C47.5437 15.288 47.4584 15.4853 47.2984 15.72C47.1384 15.944 46.909 16.168 46.6104 16.392C46.3117 16.616 45.949 16.8027 45.5224 16.952C45.0957 17.0907 44.605 17.16 44.0504 17.16ZM41.8744 12.232H46.2584V12.184C46.2584 11.704 46.1677 11.2773 45.9864 10.904C45.8157 10.5307 45.565 10.2373 45.2344 10.024C44.9037 9.8 44.509 9.688 44.0504 9.688C43.5917 9.688 43.197 9.8 42.8664 10.024C42.5464 10.2373 42.301 10.5307 42.1304 10.904C41.9597 11.2773 41.8744 11.704 41.8744 12.184V12.232ZM49.8955 17C49.7888 17 49.6982 16.968 49.6235 16.904C49.5595 16.8293 49.5275 16.7387 49.5275 16.632V6.008C49.5275 5.90133 49.5595 5.816 49.6235 5.752C49.6982 5.67733 49.7888 5.64 49.8955 5.64H50.6475C50.7648 5.64 50.8555 5.67733 50.9195 5.752C50.9835 5.816 51.0155 5.90133 51.0155 6.008V16.632C51.0155 16.7387 50.9835 16.8293 50.9195 16.904C50.8555 16.968 50.7648 17 50.6475 17H49.8955ZM56.5341 17.16C55.4355 17.16 54.5608 16.824 53.9101 16.152C53.2595 15.4693 52.9021 14.5413 52.8381 13.368C52.8275 13.2293 52.8221 13.0533 52.8221 12.84C52.8221 12.616 52.8275 12.4347 52.8381 12.296C52.8808 11.5387 53.0568 10.8773 53.3661 10.312C53.6755 9.736 54.0968 9.29333 54.6301 8.984C55.1741 8.67467 55.8088 8.52 56.5341 8.52C57.3448 8.52 58.0221 8.69067 58.5661 9.032C59.1208 9.37333 59.5421 9.85867 59.8301 10.488C60.1181 11.1173 60.2621 11.8533 60.2621 12.696V12.968C60.2621 13.0853 60.2248 13.176 60.1501 13.24C60.0861 13.304 60.0008 13.336 59.8941 13.336H54.3581C54.3581 13.3467 54.3581 13.368 54.3581 13.4C54.3581 13.432 54.3581 13.4587 54.3581 13.48C54.3795 13.9173 54.4755 14.328 54.6461 14.712C54.8168 15.0853 55.0621 15.3893 55.3821 15.624C55.7021 15.8587 56.0861 15.976 56.5341 15.976C56.9181 15.976 57.2381 15.9173 57.4941 15.8C57.7501 15.6827 57.9581 15.5547 58.1181 15.416C58.2781 15.2667 58.3848 15.1547 58.4381 15.08C58.5341 14.9413 58.6088 14.8613 58.6621 14.84C58.7155 14.808 58.8008 14.792 58.9181 14.792H59.6861C59.7928 14.792 59.8781 14.824 59.9421 14.888C60.0168 14.9413 60.0488 15.0213 60.0381 15.128C60.0275 15.288 59.9421 15.4853 59.7821 15.72C59.6221 15.944 59.3928 16.168 59.0941 16.392C58.7955 16.616 58.4328 16.8027 58.0061 16.952C57.5795 17.0907 57.0888 17.16 56.5341 17.16ZM54.3581 12.232H58.7421V12.184C58.7421 11.704 58.6515 11.2773 58.4701 10.904C58.2995 10.5307 58.0488 10.2373 57.7181 10.024C57.3875 9.8 56.9928 9.688 56.5341 9.688C56.0755 9.688 55.6808 9.8 55.3501 10.024C55.0301 10.2373 54.7848 10.5307 54.6141 10.904C54.4435 11.2773 54.3581 11.704 54.3581 12.184V12.232ZM65.4033 20.52C64.6779 20.52 64.0806 20.424 63.6113 20.232C63.1526 20.04 62.7899 19.8053 62.5233 19.528C62.2673 19.2613 62.0806 18.9893 61.9633 18.712C61.8566 18.4453 61.7979 18.232 61.7873 18.072C61.7766 17.9653 61.8086 17.8747 61.8833 17.8C61.9686 17.7253 62.0593 17.688 62.1553 17.688H62.9233C63.0193 17.688 63.0993 17.7093 63.1633 17.752C63.2273 17.7947 63.2806 17.8853 63.3233 18.024C63.3873 18.184 63.4833 18.36 63.6113 18.552C63.7393 18.7547 63.9366 18.9253 64.2033 19.064C64.4699 19.2133 64.8433 19.288 65.3233 19.288C65.8246 19.288 66.2459 19.2187 66.5873 19.08C66.9286 18.952 67.1846 18.7173 67.3553 18.376C67.5366 18.0453 67.6273 17.5867 67.6273 17V15.912C67.3713 16.2427 67.0353 16.52 66.6193 16.744C66.2033 16.9573 65.6806 17.064 65.0513 17.064C64.4539 17.064 63.9419 16.9627 63.5153 16.76C63.0886 16.5467 62.7366 16.264 62.4593 15.912C62.1926 15.5493 61.9899 15.1387 61.8513 14.68C61.7233 14.2213 61.6486 13.7413 61.6273 13.24C61.6166 12.9413 61.6166 12.648 61.6273 12.36C61.6486 11.8587 61.7233 11.3787 61.8513 10.92C61.9899 10.4613 62.1926 10.0507 62.4593 9.688C62.7366 9.32533 63.0886 9.04267 63.5153 8.84C63.9419 8.62667 64.4539 8.52 65.0513 8.52C65.6913 8.52 66.2193 8.64267 66.6353 8.888C67.0619 9.12267 67.4086 9.41067 67.6753 9.752V9.064C67.6753 8.95733 67.7073 8.86667 67.7713 8.792C67.8459 8.71733 67.9366 8.68 68.0433 8.68H68.7793C68.8859 8.68 68.9766 8.71733 69.0513 8.792C69.1259 8.86667 69.1633 8.95733 69.1633 9.064V16.824C69.1633 17.5387 69.0406 18.1733 68.7953 18.728C68.5606 19.2827 68.1659 19.72 67.6113 20.04C67.0673 20.36 66.3313 20.52 65.4033 20.52ZM65.3713 15.784C65.9046 15.784 66.3313 15.6613 66.6513 15.416C66.9819 15.1707 67.2219 14.8613 67.3713 14.488C67.5313 14.1147 67.6166 13.736 67.6273 13.352C67.6379 13.2027 67.6433 13.0213 67.6433 12.808C67.6433 12.584 67.6379 12.3973 67.6273 12.248C67.6166 11.864 67.5313 11.4853 67.3713 11.112C67.2219 10.7387 66.9819 10.4293 66.6513 10.184C66.3313 9.93867 65.9046 9.816 65.3713 9.816C64.8379 9.816 64.4113 9.93867 64.0913 10.184C63.7713 10.4187 63.5419 10.7333 63.4033 11.128C63.2646 11.512 63.1846 11.928 63.1633 12.376C63.1526 12.6533 63.1526 12.936 63.1633 13.224C63.1846 13.672 63.2646 14.0933 63.4033 14.488C63.5419 14.872 63.7713 15.1867 64.0913 15.432C64.4113 15.6667 64.8379 15.784 65.3713 15.784ZM71.7301 17C71.6235 17 71.5328 16.968 71.4581 16.904C71.3941 16.8293 71.3621 16.7387 71.3621 16.632V9.064C71.3621 8.95733 71.3941 8.86667 71.4581 8.792C71.5328 8.71733 71.6235 8.68 71.7301 8.68H72.4661C72.5728 8.68 72.6635 8.71733 72.7381 8.792C72.8128 8.86667 72.8501 8.95733 72.8501 9.064V9.768C73.0635 9.40533 73.3568 9.13333 73.7301 8.952C74.1035 8.77067 74.5515 8.68 75.0741 8.68H75.7141C75.8208 8.68 75.9061 8.71733 75.9701 8.792C76.0341 8.856 76.0661 8.94133 76.0661 9.048V9.704C76.0661 9.81067 76.0341 9.896 75.9701 9.96C75.9061 10.024 75.8208 10.056 75.7141 10.056H74.7541C74.1781 10.056 73.7248 10.2267 73.3941 10.568C73.0635 10.8987 72.8981 11.352 72.8981 11.928V16.632C72.8981 16.7387 72.8608 16.8293 72.7861 16.904C72.7115 16.968 72.6208 17 72.5141 17H71.7301ZM79.4552 17.16C78.9219 17.16 78.4366 17.0533 77.9992 16.84C77.5619 16.6267 77.2099 16.3387 76.9432 15.976C76.6766 15.6133 76.5432 15.2027 76.5432 14.744C76.5432 14.008 76.8419 13.4213 77.4392 12.984C78.0366 12.5467 78.8152 12.2587 79.7752 12.12L82.1592 11.784V11.32C82.1592 10.808 82.0099 10.408 81.7112 10.12C81.4232 9.832 80.9486 9.688 80.2872 9.688C79.8072 9.688 79.4179 9.784 79.1192 9.976C78.8312 10.168 78.6286 10.4133 78.5112 10.712C78.4472 10.872 78.3352 10.952 78.1752 10.952H77.4552C77.3379 10.952 77.2472 10.92 77.1832 10.856C77.1299 10.7813 77.1032 10.696 77.1032 10.6C77.1032 10.44 77.1619 10.2427 77.2792 10.008C77.4072 9.77333 77.5992 9.544 77.8552 9.32C78.1112 9.096 78.4366 8.90933 78.8312 8.76C79.2366 8.6 79.7272 8.52 80.3032 8.52C80.9432 8.52 81.4819 8.60533 81.9192 8.776C82.3566 8.936 82.6979 9.15467 82.9432 9.432C83.1992 9.70933 83.3806 10.024 83.4872 10.376C83.6046 10.728 83.6632 11.0853 83.6632 11.448V16.632C83.6632 16.7387 83.6259 16.8293 83.5512 16.904C83.4872 16.968 83.4019 17 83.2952 17H82.5592C82.4419 17 82.3512 16.968 82.2872 16.904C82.2232 16.8293 82.1912 16.7387 82.1912 16.632V15.944C82.0526 16.136 81.8659 16.328 81.6312 16.52C81.3966 16.7013 81.1032 16.856 80.7512 16.984C80.3992 17.1013 79.9672 17.16 79.4552 17.16ZM79.7912 15.96C80.2286 15.96 80.6286 15.8693 80.9912 15.688C81.3539 15.496 81.6366 15.2027 81.8392 14.808C82.0526 14.4133 82.1592 13.9173 82.1592 13.32V12.872L80.3032 13.144C79.5459 13.2507 78.9752 13.432 78.5912 13.688C78.2072 13.9333 78.0152 14.248 78.0152 14.632C78.0152 14.9307 78.1006 15.1813 78.2712 15.384C78.4526 15.576 78.6766 15.72 78.9432 15.816C79.2206 15.912 79.5032 15.96 79.7912 15.96ZM86.1514 17C86.0447 17 85.954 16.968 85.8794 16.904C85.8154 16.8293 85.7834 16.7387 85.7834 16.632V9.048C85.7834 8.94133 85.8154 8.856 85.8794 8.792C85.954 8.71733 86.0447 8.68 86.1514 8.68H86.8714C86.978 8.68 87.0634 8.71733 87.1274 8.792C87.202 8.856 87.2394 8.94133 87.2394 9.048V9.608C87.4847 9.27733 87.794 9.016 88.1674 8.824C88.5407 8.62133 88.9887 8.52 89.5114 8.52C90.7167 8.50933 91.57 9 92.0714 9.992C92.3167 9.544 92.674 9.18667 93.1434 8.92C93.6127 8.65333 94.146 8.52 94.7434 8.52C95.298 8.52 95.7994 8.648 96.2474 8.904C96.706 9.16 97.0634 9.54933 97.3194 10.072C97.586 10.584 97.7194 11.2293 97.7194 12.008V16.632C97.7194 16.7387 97.682 16.8293 97.6074 16.904C97.5434 16.968 97.458 17 97.3514 17H96.5994C96.4927 17 96.402 16.968 96.3274 16.904C96.2634 16.8293 96.2314 16.7387 96.2314 16.632V12.152C96.2314 11.5547 96.146 11.0853 95.9754 10.744C95.8047 10.4027 95.5754 10.1627 95.2874 10.024C94.9994 9.88533 94.6847 9.816 94.3434 9.816C94.066 9.816 93.7834 9.88533 93.4954 10.024C93.2074 10.1627 92.9674 10.4027 92.7754 10.744C92.594 11.0853 92.5034 11.5547 92.5034 12.152V16.632C92.5034 16.7387 92.466 16.8293 92.3914 16.904C92.3274 16.968 92.242 17 92.1354 17H91.3834C91.2767 17 91.186 16.968 91.1114 16.904C91.0474 16.8293 91.0154 16.7387 91.0154 16.632V12.152C91.0154 11.5547 90.9247 11.0853 90.7434 10.744C90.562 10.4027 90.3274 10.1627 90.0394 10.024C89.7514 9.88533 89.4474 9.816 89.1274 9.816C88.85 9.816 88.5674 9.88533 88.2794 10.024C87.9914 10.1627 87.7514 10.4027 87.5594 10.744C87.378 11.0853 87.2874 11.5493 87.2874 12.136V16.632C87.2874 16.7387 87.25 16.8293 87.1754 16.904C87.1114 16.968 87.026 17 86.9194 17H86.1514Z" fill="white" fill-opacity="0.8"/>
<path fill-rule="evenodd" clip-rule="evenodd" d="M19.7768 5.22318C19.9838 5.43014 20.0539 5.73736 19.9572 6.01362L14.8905 20.4898C14.7873 20.7846 14.5146 20.9866 14.2025 20.9994C13.8903 21.0121 13.6021 20.833 13.4752 20.5475L10.699 14.301L4.45247 11.5248C4.167 11.3979 3.9879 11.1097 4.00064 10.7975C4.01337 10.4854 4.21536 10.2127 4.51021 10.1095L18.9864 5.0428C19.2626 4.94611 19.5699 5.01622 19.7768 5.22318ZM12.1849 13.8926L14.0871 18.1725L17.416 8.66149L12.1849 13.8926ZM16.3385 7.58399L6.82749 10.9129L11.1074 12.8151L16.3385 7.58399Z" fill="white"/>
</svg>
