<svg width="103" height="26" viewBox="0 0 103 26" fill="none" xmlns="http://www.w3.org/2000/svg">
<path d="M33.76 17C33.6427 17 33.552 16.968 33.488 16.904C33.424 16.8293 33.392 16.7387 33.392 16.632V6.184C33.392 6.06667 33.424 5.976 33.488 5.912C33.552 5.83733 33.6427 5.8 33.76 5.8H40.288C40.4053 5.8 40.496 5.83733 40.56 5.912C40.624 5.976 40.656 6.06667 40.656 6.184V6.824C40.656 6.94133 40.624 7.032 40.56 7.096C40.496 7.16 40.4053 7.192 40.288 7.192H34.944V10.92H39.968C40.0853 10.92 40.176 10.9573 40.24 11.032C40.304 11.096 40.336 11.1867 40.336 11.304V11.944C40.336 12.0507 40.304 12.1413 40.24 12.216C40.176 12.28 40.0853 12.312 39.968 12.312H34.944V16.632C34.944 16.7387 34.9067 16.8293 34.832 16.904C34.768 16.968 34.6773 17 34.56 17H33.76ZM44.199 17.16C43.6657 17.16 43.1803 17.0533 42.743 16.84C42.3057 16.6267 41.9537 16.3387 41.687 15.976C41.4203 15.6133 41.287 15.2027 41.287 14.744C41.287 14.008 41.5857 13.4213 42.183 12.984C42.7803 12.5467 43.559 12.2587 44.519 12.12L46.903 11.784V11.32C46.903 10.808 46.7537 10.408 46.455 10.12C46.167 9.832 45.6923 9.688 45.031 9.688C44.551 9.688 44.1617 9.784 43.863 9.976C43.575 10.168 43.3723 10.4133 43.255 10.712C43.191 10.872 43.079 10.952 42.919 10.952H42.199C42.0817 10.952 41.991 10.92 41.927 10.856C41.8737 10.7813 41.847 10.696 41.847 10.6C41.847 10.44 41.9057 10.2427 42.023 10.008C42.151 9.77333 42.343 9.544 42.599 9.32C42.855 9.096 43.1803 8.90933 43.575 8.76C43.9803 8.6 44.471 8.52 45.047 8.52C45.687 8.52 46.2257 8.60533 46.663 8.776C47.1003 8.936 47.4417 9.15467 47.687 9.432C47.943 9.70933 48.1243 10.024 48.231 10.376C48.3483 10.728 48.407 11.0853 48.407 11.448V16.632C48.407 16.7387 48.3697 16.8293 48.295 16.904C48.231 16.968 48.1457 17 48.039 17H47.303C47.1857 17 47.095 16.968 47.031 16.904C46.967 16.8293 46.935 16.7387 46.935 16.632V15.944C46.7963 16.136 46.6097 16.328 46.375 16.52C46.1403 16.7013 45.847 16.856 45.495 16.984C45.143 17.1013 44.711 17.16 44.199 17.16ZM44.535 15.96C44.9723 15.96 45.3723 15.8693 45.735 15.688C46.0977 15.496 46.3803 15.2027 46.583 14.808C46.7963 14.4133 46.903 13.9173 46.903 13.32V12.872L45.047 13.144C44.2897 13.2507 43.719 13.432 43.335 13.688C42.951 13.9333 42.759 14.248 42.759 14.632C42.759 14.9307 42.8443 15.1813 43.015 15.384C43.1963 15.576 43.4203 15.72 43.687 15.816C43.9643 15.912 44.247 15.96 44.535 15.96ZM53.8871 17.16C53.1298 17.16 52.4738 17.016 51.9191 16.728C51.3751 16.4293 50.9538 16.008 50.6551 15.464C50.3565 14.9093 50.1965 14.248 50.1751 13.48C50.1645 13.32 50.1591 13.1067 50.1591 12.84C50.1591 12.5733 50.1645 12.36 50.1751 12.2C50.1965 11.432 50.3565 10.776 50.6551 10.232C50.9538 9.67733 51.3751 9.256 51.9191 8.968C52.4738 8.66933 53.1298 8.52 53.8871 8.52C54.5058 8.52 55.0338 8.60533 55.4711 8.776C55.9191 8.94667 56.2871 9.16533 56.5751 9.432C56.8631 9.69867 57.0765 9.98667 57.2151 10.296C57.3645 10.6053 57.4445 10.8987 57.4551 11.176C57.4658 11.2827 57.4338 11.368 57.3591 11.432C57.2845 11.496 57.1938 11.528 57.0871 11.528H56.3191C56.2125 11.528 56.1325 11.5067 56.0791 11.464C56.0258 11.4107 55.9725 11.3253 55.9191 11.208C55.7271 10.6853 55.4658 10.3173 55.1351 10.104C54.8045 9.89067 54.3938 9.784 53.9031 9.784C53.2631 9.784 52.7405 9.98133 52.3351 10.376C51.9405 10.7707 51.7271 11.4053 51.6951 12.28C51.6845 12.664 51.6845 13.0373 51.6951 13.4C51.7271 14.2853 51.9405 14.9253 52.3351 15.32C52.7405 15.704 53.2631 15.896 53.9031 15.896C54.3938 15.896 54.8045 15.7893 55.1351 15.576C55.4658 15.3627 55.7271 14.9947 55.9191 14.472C55.9725 14.3547 56.0258 14.2747 56.0791 14.232C56.1325 14.1787 56.2125 14.152 56.3191 14.152H57.0871C57.1938 14.152 57.2845 14.184 57.3591 14.248C57.4338 14.312 57.4658 14.3973 57.4551 14.504C57.4445 14.728 57.3965 14.9573 57.3111 15.192C57.2258 15.4267 57.0871 15.6667 56.8951 15.912C56.7138 16.1467 56.4845 16.36 56.2071 16.552C55.9298 16.7333 55.5938 16.8827 55.1991 17C54.8151 17.1067 54.3778 17.16 53.8871 17.16ZM62.4872 17.16C61.3886 17.16 60.5139 16.824 59.8632 16.152C59.2126 15.4693 58.8552 14.5413 58.7912 13.368C58.7806 13.2293 58.7752 13.0533 58.7752 12.84C58.7752 12.616 58.7806 12.4347 58.7912 12.296C58.8339 11.5387 59.0099 10.8773 59.3192 10.312C59.6286 9.736 60.0499 9.29333 60.5832 8.984C61.1272 8.67467 61.7619 8.52 62.4872 8.52C63.2979 8.52 63.9752 8.69067 64.5192 9.032C65.0739 9.37333 65.4952 9.85867 65.7832 10.488C66.0712 11.1173 66.2152 11.8533 66.2152 12.696V12.968C66.2152 13.0853 66.1779 13.176 66.1032 13.24C66.0392 13.304 65.9539 13.336 65.8472 13.336H60.3112C60.3112 13.3467 60.3112 13.368 60.3112 13.4C60.3112 13.432 60.3112 13.4587 60.3112 13.48C60.3326 13.9173 60.4286 14.328 60.5992 14.712C60.7699 15.0853 61.0152 15.3893 61.3352 15.624C61.6552 15.8587 62.0392 15.976 62.4872 15.976C62.8712 15.976 63.1912 15.9173 63.4472 15.8C63.7032 15.6827 63.9112 15.5547 64.0712 15.416C64.2312 15.2667 64.3379 15.1547 64.3912 15.08C64.4872 14.9413 64.5619 14.8613 64.6152 14.84C64.6686 14.808 64.7539 14.792 64.8712 14.792H65.6392C65.7459 14.792 65.8312 14.824 65.8952 14.888C65.9699 14.9413 66.0019 15.0213 65.9912 15.128C65.9806 15.288 65.8952 15.4853 65.7352 15.72C65.5752 15.944 65.3459 16.168 65.0472 16.392C64.7486 16.616 64.3859 16.8027 63.9592 16.952C63.5326 17.0907 63.0419 17.16 62.4872 17.16ZM60.3112 12.232H64.6952V12.184C64.6952 11.704 64.6046 11.2773 64.4232 10.904C64.2526 10.5307 64.0019 10.2373 63.6712 10.024C63.3406 9.8 62.9459 9.688 62.4872 9.688C62.0286 9.688 61.6339 9.8 61.3032 10.024C60.9832 10.2373 60.7379 10.5307 60.5672 10.904C60.3966 11.2773 60.3112 11.704 60.3112 12.184V12.232ZM72.0604 17.16C71.4204 17.16 70.887 17.048 70.4604 16.824C70.0337 16.5893 69.6924 16.3013 69.4364 15.96V16.632C69.4364 16.7387 69.399 16.8293 69.3244 16.904C69.2604 16.968 69.175 17 69.0684 17H68.3324C68.2257 17 68.135 16.968 68.0604 16.904C67.9964 16.8293 67.9644 16.7387 67.9644 16.632V6.008C67.9644 5.90133 67.9964 5.816 68.0604 5.752C68.135 5.67733 68.2257 5.64 68.3324 5.64H69.1004C69.2177 5.64 69.3084 5.67733 69.3724 5.752C69.4364 5.816 69.4684 5.90133 69.4684 6.008V9.688C69.735 9.35733 70.0764 9.08 70.4924 8.856C70.919 8.632 71.4417 8.52 72.0604 8.52C72.6577 8.52 73.1644 8.62667 73.5804 8.84C74.007 9.04267 74.3537 9.32533 74.6204 9.688C74.8977 10.0507 75.1057 10.4613 75.2444 10.92C75.383 11.3787 75.4577 11.8587 75.4684 12.36C75.479 12.5307 75.4844 12.6907 75.4844 12.84C75.4844 12.9893 75.479 13.1493 75.4684 13.32C75.4577 13.832 75.383 14.3173 75.2444 14.776C75.1057 15.2347 74.8977 15.6453 74.6204 16.008C74.3537 16.36 74.007 16.6427 73.5804 16.856C73.1644 17.0587 72.6577 17.16 72.0604 17.16ZM71.7244 15.864C72.279 15.864 72.711 15.7467 73.0204 15.512C73.3404 15.2667 73.5697 14.952 73.7084 14.568C73.847 14.1733 73.927 13.752 73.9484 13.304C73.959 12.9947 73.959 12.6853 73.9484 12.376C73.927 11.928 73.847 11.512 73.7084 11.128C73.5697 10.7333 73.3404 10.4187 73.0204 10.184C72.711 9.93867 72.279 9.816 71.7244 9.816C71.223 9.816 70.807 9.93333 70.4764 10.168C70.1457 10.4027 69.895 10.7013 69.7244 11.064C69.5644 11.4267 69.479 11.7947 69.4684 12.168C69.4577 12.3387 69.4524 12.5467 69.4524 12.792C69.4524 13.0267 69.4577 13.2293 69.4684 13.4C69.4897 13.7947 69.575 14.184 69.7244 14.568C69.8844 14.9413 70.1244 15.2507 70.4444 15.496C70.775 15.7413 71.2017 15.864 71.7244 15.864ZM80.692 17.16C79.8813 17.16 79.204 17.0053 78.66 16.696C78.116 16.3867 77.7 15.96 77.412 15.416C77.124 14.8613 76.964 14.232 76.932 13.528C76.9213 13.3467 76.916 13.1173 76.916 12.84C76.916 12.552 76.9213 12.3227 76.932 12.152C76.964 11.4373 77.124 10.808 77.412 10.264C77.7107 9.72 78.132 9.29333 78.676 8.984C79.22 8.67467 79.892 8.52 80.692 8.52C81.492 8.52 82.164 8.67467 82.708 8.984C83.252 9.29333 83.668 9.72 83.956 10.264C84.2547 10.808 84.42 11.4373 84.452 12.152C84.4627 12.3227 84.468 12.552 84.468 12.84C84.468 13.1173 84.4627 13.3467 84.452 13.528C84.42 14.232 84.26 14.8613 83.972 15.416C83.684 15.96 83.268 16.3867 82.724 16.696C82.18 17.0053 81.5027 17.16 80.692 17.16ZM80.692 15.928C81.3533 15.928 81.8813 15.72 82.276 15.304C82.6707 14.8773 82.884 14.2587 82.916 13.448C82.9267 13.288 82.932 13.0853 82.932 12.84C82.932 12.5947 82.9267 12.392 82.916 12.232C82.884 11.4213 82.6707 10.808 82.276 10.392C81.8813 9.96533 81.3533 9.752 80.692 9.752C80.0307 9.752 79.4973 9.96533 79.092 10.392C78.6973 10.808 78.4893 11.4213 78.468 12.232C78.4573 12.392 78.452 12.5947 78.452 12.84C78.452 13.0853 78.4573 13.288 78.468 13.448C78.4893 14.2587 78.6973 14.8773 79.092 15.304C79.4973 15.72 80.0307 15.928 80.692 15.928ZM89.6995 17.16C88.8888 17.16 88.2115 17.0053 87.6675 16.696C87.1235 16.3867 86.7075 15.96 86.4195 15.416C86.1315 14.8613 85.9715 14.232 85.9395 13.528C85.9288 13.3467 85.9235 13.1173 85.9235 12.84C85.9235 12.552 85.9288 12.3227 85.9395 12.152C85.9715 11.4373 86.1315 10.808 86.4195 10.264C86.7182 9.72 87.1395 9.29333 87.6835 8.984C88.2275 8.67467 88.8995 8.52 89.6995 8.52C90.4995 8.52 91.1715 8.67467 91.7155 8.984C92.2595 9.29333 92.6755 9.72 92.9635 10.264C93.2622 10.808 93.4275 11.4373 93.4595 12.152C93.4702 12.3227 93.4755 12.552 93.4755 12.84C93.4755 13.1173 93.4702 13.3467 93.4595 13.528C93.4275 14.232 93.2675 14.8613 92.9795 15.416C92.6915 15.96 92.2755 16.3867 91.7315 16.696C91.1875 17.0053 90.5102 17.16 89.6995 17.16ZM89.6995 15.928C90.3608 15.928 90.8888 15.72 91.2835 15.304C91.6782 14.8773 91.8915 14.2587 91.9235 13.448C91.9342 13.288 91.9395 13.0853 91.9395 12.84C91.9395 12.5947 91.9342 12.392 91.9235 12.232C91.8915 11.4213 91.6782 10.808 91.2835 10.392C90.8888 9.96533 90.3608 9.752 89.6995 9.752C89.0382 9.752 88.5048 9.96533 88.0995 10.392C87.7048 10.808 87.4968 11.4213 87.4755 12.232C87.4648 12.392 87.4595 12.5947 87.4595 12.84C87.4595 13.0853 87.4648 13.288 87.4755 13.448C87.4968 14.2587 87.7048 14.8773 88.0995 15.304C88.5048 15.72 89.0382 15.928 89.6995 15.928ZM95.683 17C95.5763 17 95.4857 16.968 95.411 16.904C95.347 16.8293 95.315 16.7387 95.315 16.632V6.008C95.315 5.90133 95.347 5.816 95.411 5.752C95.4857 5.67733 95.5763 5.64 95.683 5.64H96.435C96.5417 5.64 96.627 5.67733 96.691 5.752C96.7657 5.816 96.803 5.90133 96.803 6.008V11.576L99.955 8.952C100.083 8.84533 100.179 8.776 100.243 8.744C100.318 8.70133 100.435 8.68 100.595 8.68H101.443C101.539 8.68 101.619 8.712 101.683 8.776C101.747 8.84 101.779 8.92 101.779 9.016C101.779 9.05867 101.763 9.10667 101.731 9.16C101.71 9.21333 101.662 9.26667 101.587 9.32L97.891 12.392L101.987 16.376C102.115 16.4827 102.179 16.5787 102.179 16.664C102.179 16.76 102.147 16.84 102.083 16.904C102.019 16.968 101.939 17 101.843 17H101.011C100.851 17 100.734 16.984 100.659 16.952C100.584 16.9093 100.488 16.8347 100.371 16.728L96.803 13.32V16.632C96.803 16.7387 96.7657 16.8293 96.691 16.904C96.627 16.968 96.5417 17 96.435 17H95.683Z" fill="white" fill-opacity="0.8"/>
<path fill-rule="evenodd" clip-rule="evenodd" d="M13.5139 6.52381L13.4913 6.52392C12.2569 6.5364 11.2663 7.5472 11.2787 8.78163L11.2481 12.0451C11.2427 12.462 10.9032 12.7971 10.4863 12.7971H8.52381V14.1673H10.5219C10.9427 14.1673 11.2838 14.5085 11.2838 14.9292V19.4762H13.103V14.9292C13.103 14.5085 13.4441 14.1673 13.8649 14.1673H15.8059L16.0167 12.7971H13.8649C13.4441 12.7971 13.103 12.456 13.103 12.0352V9.40632C13.103 8.57173 13.7795 7.89512 14.6141 7.89512H16.1428V6.52381H13.5139ZM13.4759 5.00019L13.5139 5H16.9047C17.3255 5 17.6667 5.34112 17.6667 5.7619V8.65702C17.6667 9.07781 17.3255 9.41893 16.9047 9.41893H14.6268V11.2733H16.9047C17.127 11.2733 17.3383 11.3704 17.483 11.5391C17.6278 11.7078 17.6916 11.9313 17.6578 12.151L17.2126 15.0451C17.1554 15.4168 16.8356 15.6911 16.4595 15.6911H14.6268V20.2381C14.6268 20.6589 14.2857 21 13.8649 21H10.5219C10.1012 21 9.76003 20.6589 9.76003 20.2381V15.6911H7.7619C7.34112 15.6911 7 15.35 7 14.9292V12.0352C7 11.6144 7.34112 11.2733 7.7619 11.2733H9.7342L9.75998 9.28703L9.75501 8.79711C9.73403 6.72116 11.3999 5.02122 13.4759 5.00019Z" fill="white"/>
</svg>
