<svg width="349" height="44" viewBox="0 0 349 44" fill="none" xmlns="http://www.w3.org/2000/svg">
<g opacity="0.6">
<path d="M0.935696 1.828C1.45247 1.828 1.87139 1.41878 1.87139 0.913998C1.87139 0.409211 1.45247 0 0.935696 0C0.418925 0 0 0.409211 0 0.913998C0 1.41878 0.418925 1.828 0.935696 1.828Z" fill="white"/>
<path d="M2.80684 7.88205C3.90497 7.88205 4.79519 7.01248 4.79519 5.9398C4.79519 4.86713 3.90497 3.99756 2.80684 3.99756C1.7087 3.99756 0.818481 4.86713 0.818481 5.9398C0.818481 7.01248 1.7087 7.88205 2.80684 7.88205Z" fill="white"/>
<path d="M5.14558 12.9101C6.24372 12.9101 7.13393 12.0406 7.13393 10.9679C7.13393 9.89521 6.24372 9.02563 5.14558 9.02563C4.04744 9.02563 3.15723 9.89521 3.15723 10.9679C3.15723 12.0406 4.04744 12.9101 5.14558 12.9101Z" fill="white"/>
<path d="M7.71904 17.2511C8.30041 17.2511 8.7717 16.7907 8.7717 16.2228C8.7717 15.6549 8.30041 15.1946 7.71904 15.1946C7.13767 15.1946 6.66638 15.6549 6.66638 16.2228C6.66638 16.7907 7.13767 17.2511 7.71904 17.2511Z" fill="white"/>
<path d="M10.9951 22.963C11.641 22.963 12.1647 22.4515 12.1647 21.8205C12.1647 21.1895 11.641 20.678 10.9951 20.678C10.3491 20.678 9.82544 21.1895 9.82544 21.8205C9.82544 22.4515 10.3491 22.963 10.9951 22.963Z" fill="white"/>
<path d="M14.9721 30.1627C16.3932 30.1627 17.5453 29.0374 17.5453 27.6492C17.5453 26.2611 16.3932 25.1357 14.9721 25.1357C13.551 25.1357 12.3989 26.2611 12.3989 27.6492C12.3989 29.0374 13.551 30.1627 14.9721 30.1627Z" fill="white"/>
<path d="M19.4139 35.3032C20.2537 35.3032 20.9344 34.6383 20.9344 33.818C20.9344 32.9977 20.2537 32.3328 19.4139 32.3328C18.5742 32.3328 17.8934 32.9977 17.8934 33.818C17.8934 34.6383 18.5742 35.3032 19.4139 35.3032Z" fill="white"/>
<path d="M24.5619 43.8713C26.5643 43.8713 28.1877 42.2856 28.1877 40.3296C28.1877 38.3735 26.5643 36.7878 24.5619 36.7878C22.5594 36.7878 20.936 38.3735 20.936 40.3296C20.936 42.2856 22.5594 43.8713 24.5619 43.8713Z" fill="white"/>
<path d="M8.42007 2.51354C8.93684 2.51354 9.35577 2.10433 9.35577 1.59954C9.35577 1.09476 8.93684 0.685547 8.42007 0.685547C7.9033 0.685547 7.48438 1.09476 7.48438 1.59954C7.48438 2.10433 7.9033 2.51354 8.42007 2.51354Z" fill="white"/>
<path d="M9.94082 6.85363C10.4576 6.85363 10.8765 6.44442 10.8765 5.93963C10.8765 5.43485 10.4576 5.02563 9.94082 5.02563C9.42405 5.02563 9.00513 5.43485 9.00513 5.93963C9.00513 6.44442 9.42405 6.85363 9.94082 6.85363Z" fill="white"/>
<path d="M11.8138 12.2243C12.9119 12.2243 13.8021 11.3548 13.8021 10.2821C13.8021 9.20942 12.9119 8.33984 11.8138 8.33984C10.7157 8.33984 9.82544 9.20942 9.82544 10.2821C9.82544 11.3548 10.7157 12.2243 11.8138 12.2243Z" fill="white"/>
<path d="M14.2697 15.995C14.7865 15.995 15.2054 15.5858 15.2054 15.081C15.2054 14.5762 14.7865 14.167 14.2697 14.167C13.7529 14.167 13.334 14.5762 13.334 15.081C13.334 15.5858 13.7529 15.995 14.2697 15.995Z" fill="white"/>
<path d="M17.3102 22.1647C18.4729 22.1647 19.4155 21.244 19.4155 20.1083C19.4155 18.9725 18.4729 18.0518 17.3102 18.0518C16.1474 18.0518 15.2048 18.9725 15.2048 20.1083C15.2048 21.244 16.1474 22.1647 17.3102 22.1647Z" fill="white"/>
<path d="M20.9357 27.6479C22.2276 27.6479 23.2749 26.6248 23.2749 25.3629C23.2749 24.1009 22.2276 23.0779 20.9357 23.0779C19.6437 23.0779 18.5964 24.1009 18.5964 25.3629C18.5964 26.6248 19.6437 27.6479 20.9357 27.6479Z" fill="white"/>
<path d="M25.3797 32.1046C26.0903 32.1046 26.6663 31.5419 26.6663 30.8478C26.6663 30.1537 26.0903 29.5911 25.3797 29.5911C24.6692 29.5911 24.0931 30.1537 24.0931 30.8478C24.0931 31.5419 24.6692 32.1046 25.3797 32.1046Z" fill="white"/>
<path d="M31.1109 39.5298C32.855 39.5298 34.2688 38.1488 34.2688 36.4451C34.2688 34.7414 32.855 33.3604 31.1109 33.3604C29.3668 33.3604 27.9529 34.7414 27.9529 36.4451C27.9529 38.1488 29.3668 39.5298 31.1109 39.5298Z" fill="white"/>
<path d="M15.2056 2.97059C15.6577 2.97059 16.0243 2.61253 16.0243 2.17084C16.0243 1.72915 15.6577 1.37109 15.2056 1.37109C14.7534 1.37109 14.3868 1.72915 14.3868 2.17084C14.3868 2.61253 14.7534 2.97059 15.2056 2.97059Z" fill="white"/>
<path d="M16.6078 7.5403C17.5122 7.5403 18.2453 6.82418 18.2453 5.9408C18.2453 5.05743 17.5122 4.34131 16.6078 4.34131C15.7035 4.34131 14.9703 5.05743 14.9703 5.9408C14.9703 6.82418 15.7035 7.5403 16.6078 7.5403Z" fill="white"/>
<path d="M18.2461 11.5388C19.2151 11.5388 20.0006 10.7715 20.0006 9.82507C20.0006 8.8786 19.2151 8.11133 18.2461 8.11133C17.2772 8.11133 16.4917 8.8786 16.4917 9.82507C16.4917 10.7715 17.2772 11.5388 18.2461 11.5388Z" fill="white"/>
<path d="M20.4693 15.0804C20.986 15.0804 21.405 14.6712 21.405 14.1664C21.405 13.6617 20.986 13.2524 20.4693 13.2524C19.9525 13.2524 19.5336 13.6617 19.5336 14.1664C19.5336 14.6712 19.9525 15.0804 20.4693 15.0804Z" fill="white"/>
<path d="M23.3922 19.536C23.909 19.536 24.3279 19.1268 24.3279 18.622C24.3279 18.1172 23.909 17.708 23.3922 17.708C22.8755 17.708 22.4565 18.1172 22.4565 18.622C22.4565 19.1268 22.8755 19.536 23.3922 19.536Z" fill="white"/>
<path d="M26.901 25.3635C28.0637 25.3635 29.0063 24.4428 29.0063 23.307C29.0063 22.1712 28.0637 21.2505 26.901 21.2505C25.7382 21.2505 24.7957 22.1712 24.7957 23.307C24.7957 24.4428 25.7382 25.3635 26.901 25.3635Z" fill="white"/>
<path d="M31.3446 30.5026C32.6365 30.5026 33.6838 29.4796 33.6838 28.2176C33.6838 26.9556 32.6365 25.9326 31.3446 25.9326C30.0527 25.9326 29.0054 26.9556 29.0054 28.2176C29.0054 29.4796 30.0527 30.5026 31.3446 30.5026Z" fill="white"/>
<path d="M36.7258 35.8741C38.2115 35.8741 39.4159 34.6977 39.4159 33.2464C39.4159 31.7951 38.2115 30.6187 36.7258 30.6187C35.2401 30.6187 34.0356 31.7951 34.0356 33.2464C34.0356 34.6977 35.2401 35.8741 36.7258 35.8741Z" fill="white"/>
<path d="M42.2226 32.6757C43.5791 32.6757 44.6788 31.6015 44.6788 30.2764C44.6788 28.9514 43.5791 27.8772 42.2226 27.8772C40.866 27.8772 39.7664 28.9514 39.7664 30.2764C39.7664 31.6015 40.866 32.6757 42.2226 32.6757Z" fill="white"/>
<path d="M37.076 28.1052C38.2388 28.1052 39.1813 27.1844 39.1813 26.0487C39.1813 24.9129 38.2388 23.9922 37.076 23.9922C35.9133 23.9922 34.9707 24.9129 34.9707 26.0487C34.9707 27.1844 35.9133 28.1052 37.076 28.1052Z" fill="white"/>
<path d="M32.7496 23.4216C33.7831 23.4216 34.621 22.6032 34.621 21.5936C34.621 20.584 33.7831 19.7656 32.7496 19.7656C31.716 19.7656 30.8782 20.584 30.8782 21.5936C30.8782 22.6032 31.716 23.4216 32.7496 23.4216Z" fill="white"/>
<path d="M29.3578 19.3081C30.3914 19.3081 31.2292 18.4897 31.2292 17.4801C31.2292 16.4705 30.3914 15.6521 29.3578 15.6521C28.3243 15.6521 27.4865 16.4705 27.4865 17.4801C27.4865 18.4897 28.3243 19.3081 29.3578 19.3081Z" fill="white"/>
<path d="M26.5516 14.2811C27.0038 14.2811 27.3704 13.9231 27.3704 13.4814C27.3704 13.0397 27.0038 12.6816 26.5516 12.6816C26.0995 12.6816 25.7329 13.0397 25.7329 13.4814C25.7329 13.9231 26.0995 14.2811 26.5516 14.2811Z" fill="white"/>
<path d="M24.3285 11.0818C25.1682 11.0818 25.849 10.4169 25.849 9.59657C25.849 8.7763 25.1682 8.11133 24.3285 8.11133C23.4887 8.11133 22.808 8.7763 22.808 9.59657C22.808 10.4169 23.4887 11.0818 24.3285 11.0818Z" fill="white"/>
<path d="M22.6906 7.65408C23.5303 7.65408 24.2111 6.98912 24.2111 6.16884C24.2111 5.34856 23.5303 4.68359 22.6906 4.68359C21.8508 4.68359 21.17 5.34856 21.17 6.16884C21.17 6.98912 21.8508 7.65408 22.6906 7.65408Z" fill="white"/>
<path d="M21.2875 3.31289C21.675 3.31289 21.9892 3.00598 21.9892 2.62739C21.9892 2.2488 21.675 1.94189 21.2875 1.94189C20.8999 1.94189 20.5857 2.2488 20.5857 2.62739C20.5857 3.00598 20.8999 3.31289 21.2875 3.31289Z" fill="white"/>
<path d="M26.784 3.77017C27.1716 3.77017 27.4858 3.46326 27.4858 3.08467C27.4858 2.70608 27.1716 2.39917 26.784 2.39917C26.3965 2.39917 26.0823 2.70608 26.0823 3.08467C26.0823 3.46326 26.3965 3.77017 26.784 3.77017Z" fill="white"/>
<path d="M28.3043 7.54082C29.0795 7.54082 29.7078 6.92701 29.7078 6.16982C29.7078 5.41264 29.0795 4.79883 28.3043 4.79883C27.5291 4.79883 26.9008 5.41264 26.9008 6.16982C26.9008 6.92701 27.5291 7.54082 28.3043 7.54082Z" fill="white"/>
<path d="M29.9426 10.8533C30.7178 10.8533 31.3462 10.2395 31.3462 9.48232C31.3462 8.72514 30.7178 8.11133 29.9426 8.11133C29.1675 8.11133 28.5391 8.72514 28.5391 9.48232C28.5391 10.2395 29.1675 10.8533 29.9426 10.8533Z" fill="white"/>
<path d="M32.1642 14.3955C33.0039 14.3955 33.6847 13.7306 33.6847 12.9103C33.6847 12.09 33.0039 11.425 32.1642 11.425C31.3244 11.425 30.6437 12.09 30.6437 12.9103C30.6437 13.7306 31.3244 14.3955 32.1642 14.3955Z" fill="white"/>
<path d="M34.8544 17.3654C35.3065 17.3654 35.6731 17.0073 35.6731 16.5656C35.6731 16.1239 35.3065 15.7659 34.8544 15.7659C34.4022 15.7659 34.0356 16.1239 34.0356 16.5656C34.0356 17.0073 34.4022 17.3654 34.8544 17.3654Z" fill="white"/>
<path d="M38.3635 21.7061C39.2679 21.7061 40.001 20.99 40.001 20.1066C40.001 19.2232 39.2679 18.5071 38.3635 18.5071C37.4592 18.5071 36.7261 19.2232 36.7261 20.1066C36.7261 20.99 37.4592 21.7061 38.3635 21.7061Z" fill="white"/>
<path d="M42.5727 25.9343C43.6708 25.9343 44.5611 25.0647 44.5611 23.992C44.5611 22.9194 43.6708 22.0498 42.5727 22.0498C41.4746 22.0498 40.5844 22.9194 40.5844 23.992C40.5844 25.0647 41.4746 25.9343 42.5727 25.9343Z" fill="white"/>
<path d="M47.4875 28.9059C48.0688 28.9059 48.5401 28.4455 48.5401 27.8776C48.5401 27.3097 48.0688 26.8494 47.4875 26.8494C46.9061 26.8494 46.4348 27.3097 46.4348 27.8776C46.4348 28.4455 46.9061 28.9059 47.4875 28.9059Z" fill="white"/>
<path d="M47.4859 24.2207C48.4548 24.2207 49.2403 23.4534 49.2403 22.507C49.2403 21.5605 48.4548 20.7932 47.4859 20.7932C46.5169 20.7932 45.7314 21.5605 45.7314 22.507C45.7314 23.4534 46.5169 24.2207 47.4859 24.2207Z" fill="white"/>
<path d="M52.2809 26.6195C52.7977 26.6195 53.2166 26.2103 53.2166 25.7055C53.2166 25.2007 52.7977 24.7915 52.2809 24.7915C51.7641 24.7915 51.3452 25.2007 51.3452 25.7055C51.3452 26.2103 51.7641 26.6195 52.2809 26.6195Z" fill="white"/>
<path d="M43.3932 20.6782C44.2976 20.6782 45.0307 19.9621 45.0307 19.0787C45.0307 18.1954 44.2976 17.4792 43.3932 17.4792C42.4889 17.4792 41.7557 18.1954 41.7557 19.0787C41.7557 19.9621 42.4889 20.6782 43.3932 20.6782Z" fill="white"/>
<path d="M40 17.2508C40.8397 17.2508 41.5205 16.5858 41.5205 15.7655C41.5205 14.9452 40.8397 14.2803 40 14.2803C39.1602 14.2803 38.4795 14.9452 38.4795 15.7655C38.4795 16.5858 39.1602 17.2508 40 17.2508Z" fill="white"/>
<path d="M37.311 13.1381C37.6986 13.1381 38.0128 12.8312 38.0128 12.4526C38.0128 12.074 37.6986 11.7671 37.311 11.7671C36.9234 11.7671 36.6093 12.074 36.6093 12.4526C36.6093 12.8312 36.9234 13.1381 37.311 13.1381Z" fill="white"/>
<path d="M35.088 10.7396C35.8631 10.7396 36.4915 10.1257 36.4915 9.36855C36.4915 8.61137 35.8631 7.99756 35.088 7.99756C34.3128 7.99756 33.6844 8.61137 33.6844 9.36855C33.6844 10.1257 34.3128 10.7396 35.088 10.7396Z" fill="white"/>
<path d="M33.3336 7.1979C33.7212 7.1979 34.0354 6.89099 34.0354 6.5124C34.0354 6.13381 33.7212 5.8269 33.3336 5.8269C32.946 5.8269 32.6318 6.13381 32.6318 6.5124C32.6318 6.89099 32.946 7.1979 33.3336 7.1979Z" fill="white"/>
<path d="M31.8143 4.22744C32.2019 4.22744 32.5161 3.92053 32.5161 3.54194C32.5161 3.16335 32.2019 2.85645 31.8143 2.85645C31.4267 2.85645 31.1125 3.16335 31.1125 3.54194C31.1125 3.92053 31.4267 4.22744 31.8143 4.22744Z" fill="white"/>
<path d="M36.3169 4.51187C36.6722 4.51187 36.9602 4.23054 36.9602 3.8835C36.9602 3.53646 36.6722 3.25513 36.3169 3.25513C35.9616 3.25513 35.6736 3.53646 35.6736 3.8835C35.6736 4.23054 35.9616 4.51187 36.3169 4.51187Z" fill="white"/>
<path d="M37.8958 7.88288C38.6064 7.88288 39.1824 7.32021 39.1824 6.62613C39.1824 5.93205 38.6064 5.36938 37.8958 5.36938C37.1853 5.36938 36.6093 5.93205 36.6093 6.62613C36.6093 7.32021 37.1853 7.88288 37.8958 7.88288Z" fill="white"/>
<path d="M39.7661 10.6248C40.4766 10.6248 41.0527 10.0622 41.0527 9.36808C41.0527 8.67399 40.4766 8.11133 39.7661 8.11133C39.0555 8.11133 38.4795 8.67399 38.4795 9.36808C38.4795 10.0622 39.0555 10.6248 39.7661 10.6248Z" fill="white"/>
<path d="M41.9902 13.3665C42.7008 13.3665 43.2768 12.8039 43.2768 12.1098C43.2768 11.4157 42.7008 10.853 41.9902 10.853C41.2796 10.853 40.7036 11.4157 40.7036 12.1098C40.7036 12.8039 41.2796 13.3665 41.9902 13.3665Z" fill="white"/>
<path d="M44.6798 15.88C45.0674 15.88 45.3816 15.5731 45.3816 15.1945C45.3816 14.8159 45.0674 14.509 44.6798 14.509C44.2922 14.509 43.978 14.8159 43.978 15.1945C43.978 15.5731 44.2922 15.88 44.6798 15.88Z" fill="white"/>
<path d="M47.9553 19.6504C48.7951 19.6504 49.4758 18.9855 49.4758 18.1652C49.4758 17.3449 48.7951 16.6799 47.9553 16.6799C47.1156 16.6799 46.4348 17.3449 46.4348 18.1652C46.4348 18.9855 47.1156 19.6504 47.9553 19.6504Z" fill="white"/>
<path d="M51.8124 21.8224C52.2646 21.8224 52.6311 21.4643 52.6311 21.0226C52.6311 20.581 52.2646 20.2229 51.8124 20.2229C51.3602 20.2229 50.9937 20.581 50.9937 21.0226C50.9937 21.4643 51.3602 21.8224 51.8124 21.8224Z" fill="white"/>
<path d="M56.491 25.8193C57.5246 25.8193 58.3624 25.0009 58.3624 23.9913C58.3624 22.9818 57.5246 22.1633 56.491 22.1633C55.4575 22.1633 54.6196 22.9818 54.6196 23.9913C54.6196 25.0009 55.4575 25.8193 56.491 25.8193Z" fill="white"/>
<path d="M60.3532 23.3073C60.8053 23.3073 61.1719 22.9492 61.1719 22.5075C61.1719 22.0658 60.8053 21.7078 60.3532 21.7078C59.901 21.7078 59.5344 22.0658 59.5344 22.5075C59.5344 22.9492 59.901 23.3073 60.3532 23.3073Z" fill="white"/>
<path d="M55.6753 21.4776C56.515 21.4776 57.1958 20.8126 57.1958 19.9923C57.1958 19.172 56.515 18.5071 55.6753 18.5071C54.8355 18.5071 54.1548 19.172 54.1548 19.9923C54.1548 20.8126 54.8355 21.4776 55.6753 21.4776Z" fill="white"/>
<path d="M51.8146 17.9357C52.2021 17.9357 52.5163 17.6288 52.5163 17.2502C52.5163 16.8716 52.2021 16.5647 51.8146 16.5647C51.427 16.5647 51.1128 16.8716 51.1128 17.2502C51.1128 17.6288 51.427 17.9357 51.8146 17.9357Z" fill="white"/>
<path d="M48.6543 15.7659C49.3648 15.7659 49.9408 15.2033 49.9408 14.5092C49.9408 13.8151 49.3648 13.2524 48.6543 13.2524C47.9437 13.2524 47.3677 13.8151 47.3677 14.5092C47.3677 15.2033 47.9437 15.7659 48.6543 15.7659Z" fill="white"/>
<path d="M45.9653 13.1375C46.6759 13.1375 47.2519 12.5749 47.2519 11.8808C47.2519 11.1867 46.6759 10.624 45.9653 10.624C45.2547 10.624 44.6787 11.1867 44.6787 11.8808C44.6787 12.5749 45.2547 13.1375 45.9653 13.1375Z" fill="white"/>
<path d="M43.7438 10.3963C44.3898 10.3963 44.9135 9.88481 44.9135 9.25383C44.9135 8.62284 44.3898 8.11133 43.7438 8.11133C43.0979 8.11133 42.5742 8.62284 42.5742 9.25383C42.5742 9.88481 43.0979 10.3963 43.7438 10.3963Z" fill="white"/>
<path d="M41.9904 7.76961C42.6364 7.76961 43.16 7.2581 43.16 6.62712C43.16 5.99613 42.6364 5.48462 41.9904 5.48462C41.3445 5.48462 40.8208 5.99613 40.8208 6.62712C40.8208 7.2581 41.3445 7.76961 41.9904 7.76961Z" fill="white"/>
<path d="M40.2358 4.68303C40.5588 4.68303 40.8206 4.42727 40.8206 4.11178C40.8206 3.79628 40.5588 3.54053 40.2358 3.54053C39.9128 3.54053 39.651 3.79628 39.651 4.11178C39.651 4.42727 39.9128 4.68303 40.2358 4.68303Z" fill="white"/>
<path d="M73.746 16.14C72.8873 16.14 72.1733 15.9813 71.604 15.664C71.044 15.3467 70.6193 14.9033 70.33 14.334C70.0407 13.7647 69.882 13.102 69.854 12.346C69.8447 11.9633 69.84 11.5527 69.84 11.114C69.84 10.6753 69.8447 10.2553 69.854 9.854C69.882 9.098 70.0407 8.43533 70.33 7.866C70.6193 7.29667 71.044 6.85333 71.604 6.536C72.1733 6.21867 72.8873 6.06 73.746 6.06C74.39 6.06 74.9547 6.14867 75.44 6.326C75.9253 6.50333 76.3267 6.74133 76.644 7.04C76.9707 7.33867 77.218 7.67467 77.386 8.048C77.554 8.412 77.6473 8.79 77.666 9.182C77.6753 9.266 77.6473 9.336 77.582 9.392C77.526 9.448 77.456 9.476 77.372 9.476H76.602C76.518 9.476 76.4433 9.45267 76.378 9.406C76.322 9.35933 76.28 9.27533 76.252 9.154C76.0933 8.426 75.7947 7.92667 75.356 7.656C74.9267 7.38533 74.3853 7.25 73.732 7.25C72.9853 7.25 72.3927 7.46467 71.954 7.894C71.5153 8.314 71.2773 8.99067 71.24 9.924C71.212 10.6893 71.212 11.4733 71.24 12.276C71.2773 13.2093 71.5153 13.8907 71.954 14.32C72.3927 14.74 72.9853 14.95 73.732 14.95C74.3853 14.95 74.9267 14.8147 75.356 14.544C75.7947 14.2733 76.0933 13.774 76.252 13.046C76.28 12.9247 76.322 12.8407 76.378 12.794C76.4433 12.7473 76.518 12.724 76.602 12.724H77.372C77.456 12.724 77.526 12.752 77.582 12.808C77.6473 12.864 77.6753 12.934 77.666 13.018C77.6473 13.41 77.554 13.7927 77.386 14.166C77.218 14.53 76.9707 14.8613 76.644 15.16C76.3267 15.4587 75.9253 15.6967 75.44 15.874C74.9547 16.0513 74.39 16.14 73.746 16.14ZM81.3002 16.14C80.8336 16.14 80.4089 16.0467 80.0262 15.86C79.6436 15.6733 79.3356 15.4213 79.1022 15.104C78.8689 14.7867 78.7522 14.4273 78.7522 14.026C78.7522 13.382 79.0136 12.8687 79.5362 12.486C80.0589 12.1033 80.7402 11.8513 81.5802 11.73L83.6662 11.436V11.03C83.6662 10.582 83.5356 10.232 83.2742 9.98C83.0222 9.728 82.6069 9.602 82.0282 9.602C81.6082 9.602 81.2676 9.686 81.0062 9.854C80.7542 10.022 80.5769 10.2367 80.4742 10.498C80.4182 10.638 80.3202 10.708 80.1802 10.708H79.5502C79.4476 10.708 79.3682 10.68 79.3122 10.624C79.2656 10.5587 79.2422 10.484 79.2422 10.4C79.2422 10.26 79.2936 10.0873 79.3962 9.882C79.5082 9.67667 79.6762 9.476 79.9002 9.28C80.1242 9.084 80.4089 8.92067 80.7542 8.79C81.1089 8.65 81.5382 8.58 82.0422 8.58C82.6022 8.58 83.0736 8.65467 83.4562 8.804C83.8389 8.944 84.1376 9.13533 84.3522 9.378C84.5762 9.62067 84.7349 9.896 84.8282 10.204C84.9309 10.512 84.9822 10.8247 84.9822 11.142V15.678C84.9822 15.7713 84.9496 15.8507 84.8842 15.916C84.8282 15.972 84.7536 16 84.6602 16H84.0162C83.9136 16 83.8342 15.972 83.7782 15.916C83.7222 15.8507 83.6942 15.7713 83.6942 15.678V15.076C83.5729 15.244 83.4096 15.412 83.2042 15.58C82.9989 15.7387 82.7422 15.874 82.4342 15.986C82.1262 16.0887 81.7482 16.14 81.3002 16.14ZM81.5942 15.09C81.9769 15.09 82.3269 15.0107 82.6442 14.852C82.9616 14.684 83.2089 14.4273 83.3862 14.082C83.5729 13.7367 83.6662 13.3027 83.6662 12.78V12.388L82.0422 12.626C81.3796 12.7193 80.8802 12.878 80.5442 13.102C80.2082 13.3167 80.0402 13.592 80.0402 13.928C80.0402 14.1893 80.1149 14.4087 80.2642 14.586C80.4229 14.754 80.6189 14.88 80.8522 14.964C81.0949 15.048 81.3422 15.09 81.5942 15.09ZM87.2128 16C87.1288 16 87.0542 15.972 86.9888 15.916C86.9328 15.8507 86.9048 15.7807 86.9048 15.706V9.042C86.9048 8.94867 86.9328 8.874 86.9888 8.818C87.0542 8.75267 87.1335 8.72 87.2268 8.72H87.8988C87.9922 8.72 88.0668 8.75267 88.1228 8.818C88.1788 8.874 88.2068 8.94867 88.2068 9.042V14.978L87.8428 14.6L92.0848 8.93C92.1315 8.874 92.1828 8.82733 92.2388 8.79C92.2948 8.74333 92.3648 8.72 92.4488 8.72H93.0928C93.1675 8.72 93.2328 8.748 93.2888 8.804C93.3542 8.86 93.3868 8.92533 93.3868 9V15.678C93.3868 15.7713 93.3542 15.8507 93.2888 15.916C93.2328 15.972 93.1582 16 93.0648 16H92.4068C92.3042 16 92.2248 15.972 92.1688 15.916C92.1128 15.8507 92.0848 15.7713 92.0848 15.678V10.092L92.4768 10.078L88.2068 15.79C88.1695 15.8367 88.1228 15.8833 88.0668 15.93C88.0108 15.9767 87.9362 16 87.8428 16H87.2128ZM90.1808 7.754C89.6395 7.754 89.2148 7.67 88.9068 7.502C88.5988 7.334 88.3842 7.11933 88.2628 6.858C88.1415 6.58733 88.0808 6.30733 88.0808 6.018C88.0808 5.94333 88.0995 5.88267 88.1368 5.836C88.1835 5.78 88.2535 5.752 88.3468 5.752H88.8228C88.9068 5.752 88.9722 5.78 89.0188 5.836C89.0655 5.88267 89.0888 5.94333 89.0888 6.018C89.0888 6.23267 89.1588 6.43333 89.2988 6.62C89.4482 6.79733 89.7422 6.886 90.1808 6.886C90.6288 6.886 90.9228 6.79733 91.0628 6.62C91.2028 6.43333 91.2728 6.23267 91.2728 6.018C91.2728 5.94333 91.2962 5.88267 91.3428 5.836C91.3895 5.78 91.4548 5.752 91.5388 5.752H92.0288C92.1128 5.752 92.1782 5.78 92.2248 5.836C92.2715 5.88267 92.2948 5.94333 92.2948 6.018C92.2948 6.30733 92.2295 6.58733 92.0988 6.858C91.9775 7.11933 91.7628 7.334 91.4548 7.502C91.1468 7.67 90.7222 7.754 90.1808 7.754ZM97.5721 16C97.4787 16 97.3994 15.972 97.3341 15.916C97.2781 15.8507 97.2501 15.7713 97.2501 15.678V9.84H94.8141C94.7207 9.84 94.6414 9.812 94.5761 9.756C94.5201 9.69067 94.4921 9.61133 94.4921 9.518V9.042C94.4921 8.94867 94.5201 8.874 94.5761 8.818C94.6414 8.75267 94.7207 8.72 94.8141 8.72H100.974C101.067 8.72 101.142 8.75267 101.198 8.818C101.263 8.874 101.296 8.94867 101.296 9.042V9.518C101.296 9.61133 101.263 9.69067 101.198 9.756C101.142 9.812 101.067 9.84 100.974 9.84H98.5381V15.678C98.5381 15.7713 98.5101 15.8507 98.4541 15.916C98.3981 15.972 98.3187 16 98.2161 16H97.5721ZM106.098 18.66C106.004 18.66 105.925 18.6273 105.86 18.562C105.804 18.506 105.776 18.4313 105.776 18.338V9.042C105.776 8.94867 105.804 8.874 105.86 8.818C105.925 8.75267 106.004 8.72 106.098 8.72H106.742C106.835 8.72 106.91 8.75267 106.966 8.818C107.031 8.874 107.064 8.94867 107.064 9.042V9.658C107.288 9.35 107.586 9.09333 107.96 8.888C108.333 8.68267 108.8 8.58 109.36 8.58C109.882 8.58 110.326 8.66867 110.69 8.846C111.063 9.02333 111.366 9.266 111.6 9.574C111.842 9.882 112.024 10.232 112.146 10.624C112.267 11.016 112.332 11.436 112.342 11.884C112.351 12.0333 112.356 12.192 112.356 12.36C112.356 12.528 112.351 12.6867 112.342 12.836C112.332 13.2747 112.267 13.6947 112.146 14.096C112.024 14.488 111.842 14.838 111.6 15.146C111.366 15.4447 111.063 15.6873 110.69 15.874C110.326 16.0513 109.882 16.14 109.36 16.14C108.818 16.14 108.361 16.042 107.988 15.846C107.624 15.6407 107.325 15.3887 107.092 15.09V18.338C107.092 18.4313 107.064 18.506 107.008 18.562C106.952 18.6273 106.872 18.66 106.77 18.66H106.098ZM109.066 15.006C109.551 15.006 109.929 14.9033 110.2 14.698C110.48 14.4833 110.68 14.208 110.802 13.872C110.923 13.5267 110.993 13.158 111.012 12.766C111.021 12.4953 111.021 12.2247 111.012 11.954C110.993 11.562 110.923 11.198 110.802 10.862C110.68 10.5167 110.48 10.2413 110.2 10.036C109.929 9.82133 109.551 9.714 109.066 9.714C108.608 9.714 108.235 9.82133 107.946 10.036C107.666 10.2507 107.456 10.526 107.316 10.862C107.185 11.1887 107.11 11.5247 107.092 11.87C107.082 12.0193 107.078 12.1967 107.078 12.402C107.078 12.6073 107.082 12.7893 107.092 12.948C107.101 13.2747 107.176 13.5967 107.316 13.914C107.465 14.2313 107.684 14.4927 107.974 14.698C108.263 14.9033 108.627 15.006 109.066 15.006ZM116.042 16.14C115.575 16.14 115.15 16.0467 114.768 15.86C114.385 15.6733 114.077 15.4213 113.844 15.104C113.61 14.7867 113.494 14.4273 113.494 14.026C113.494 13.382 113.755 12.8687 114.278 12.486C114.8 12.1033 115.482 11.8513 116.322 11.73L118.408 11.436V11.03C118.408 10.582 118.277 10.232 118.016 9.98C117.764 9.728 117.348 9.602 116.77 9.602C116.35 9.602 116.009 9.686 115.748 9.854C115.496 10.022 115.318 10.2367 115.216 10.498C115.16 10.638 115.062 10.708 114.922 10.708H114.292C114.189 10.708 114.11 10.68 114.054 10.624C114.007 10.5587 113.984 10.484 113.984 10.4C113.984 10.26 114.035 10.0873 114.138 9.882C114.25 9.67667 114.418 9.476 114.642 9.28C114.866 9.084 115.15 8.92067 115.496 8.79C115.85 8.65 116.28 8.58 116.784 8.58C117.344 8.58 117.815 8.65467 118.198 8.804C118.58 8.944 118.879 9.13533 119.094 9.378C119.318 9.62067 119.476 9.896 119.57 10.204C119.672 10.512 119.724 10.8247 119.724 11.142V15.678C119.724 15.7713 119.691 15.8507 119.626 15.916C119.57 15.972 119.495 16 119.402 16H118.758C118.655 16 118.576 15.972 118.52 15.916C118.464 15.8507 118.436 15.7713 118.436 15.678V15.076C118.314 15.244 118.151 15.412 117.946 15.58C117.74 15.7387 117.484 15.874 117.176 15.986C116.868 16.0887 116.49 16.14 116.042 16.14ZM116.336 15.09C116.718 15.09 117.068 15.0107 117.386 14.852C117.703 14.684 117.95 14.4273 118.128 14.082C118.314 13.7367 118.408 13.3027 118.408 12.78V12.388L116.784 12.626C116.121 12.7193 115.622 12.878 115.286 13.102C114.95 13.3167 114.782 13.592 114.782 13.928C114.782 14.1893 114.856 14.4087 115.006 14.586C115.164 14.754 115.36 14.88 115.594 14.964C115.836 15.048 116.084 15.09 116.336 15.09ZM124.18 16.14C123.63 16.14 123.163 16.0747 122.78 15.944C122.407 15.804 122.104 15.6313 121.87 15.426C121.646 15.2113 121.483 14.992 121.38 14.768C121.278 14.5347 121.222 14.32 121.212 14.124C121.212 14.04 121.24 13.9747 121.296 13.928C121.352 13.872 121.418 13.844 121.492 13.844H122.15C122.234 13.844 122.304 13.8673 122.36 13.914C122.416 13.9513 122.458 14.0213 122.486 14.124C122.598 14.4787 122.813 14.726 123.13 14.866C123.448 15.006 123.835 15.076 124.292 15.076C124.591 15.076 124.866 15.0387 125.118 14.964C125.37 14.88 125.566 14.7493 125.706 14.572C125.856 14.3947 125.93 14.1753 125.93 13.914C125.93 13.5313 125.818 13.242 125.594 13.046C125.38 12.85 125.044 12.752 124.586 12.752H123.816C123.723 12.752 123.648 12.724 123.592 12.668C123.536 12.612 123.508 12.5373 123.508 12.444V12.066C123.508 11.982 123.536 11.912 123.592 11.856C123.648 11.7907 123.723 11.758 123.816 11.758H124.502C124.885 11.758 125.179 11.6833 125.384 11.534C125.59 11.3847 125.692 11.1467 125.692 10.82C125.692 10.624 125.646 10.4373 125.552 10.26C125.459 10.0827 125.3 9.938 125.076 9.826C124.862 9.70467 124.563 9.644 124.18 9.644C123.639 9.644 123.256 9.73733 123.032 9.924C122.818 10.1013 122.664 10.3673 122.57 10.722C122.533 10.8247 122.486 10.8947 122.43 10.932C122.384 10.9693 122.314 10.988 122.22 10.988H121.59C121.506 10.988 121.436 10.9647 121.38 10.918C121.324 10.8713 121.296 10.806 121.296 10.722C121.306 10.442 121.366 10.176 121.478 9.924C121.6 9.672 121.777 9.44333 122.01 9.238C122.253 9.03267 122.552 8.874 122.906 8.762C123.27 8.64067 123.695 8.58 124.18 8.58C124.88 8.58 125.431 8.68733 125.832 8.902C126.243 9.11667 126.532 9.38267 126.7 9.7C126.878 10.008 126.966 10.316 126.966 10.624C126.966 10.988 126.906 11.2913 126.784 11.534C126.672 11.7767 126.448 11.982 126.112 12.15C126.532 12.3087 126.822 12.5467 126.98 12.864C127.139 13.1813 127.223 13.55 127.232 13.97C127.242 14.4553 127.111 14.8567 126.84 15.174C126.579 15.4913 126.22 15.734 125.762 15.902C125.305 16.0607 124.778 16.14 124.18 16.14ZM129.056 18.66C128.963 18.66 128.884 18.6273 128.818 18.562C128.762 18.506 128.734 18.4313 128.734 18.338V9.042C128.734 8.94867 128.762 8.874 128.818 8.818C128.884 8.75267 128.963 8.72 129.056 8.72H129.7C129.794 8.72 129.868 8.75267 129.924 8.818C129.99 8.874 130.022 8.94867 130.022 9.042V9.658C130.246 9.35 130.545 9.09333 130.918 8.888C131.292 8.68267 131.758 8.58 132.318 8.58C132.841 8.58 133.284 8.66867 133.648 8.846C134.022 9.02333 134.325 9.266 134.558 9.574C134.801 9.882 134.983 10.232 135.104 10.624C135.226 11.016 135.291 11.436 135.3 11.884C135.31 12.0333 135.314 12.192 135.314 12.36C135.314 12.528 135.31 12.6867 135.3 12.836C135.291 13.2747 135.226 13.6947 135.104 14.096C134.983 14.488 134.801 14.838 134.558 15.146C134.325 15.4447 134.022 15.6873 133.648 15.874C133.284 16.0513 132.841 16.14 132.318 16.14C131.777 16.14 131.32 16.042 130.946 15.846C130.582 15.6407 130.284 15.3887 130.05 15.09V18.338C130.05 18.4313 130.022 18.506 129.966 18.562C129.91 18.6273 129.831 18.66 129.728 18.66H129.056ZM132.024 15.006C132.51 15.006 132.888 14.9033 133.158 14.698C133.438 14.4833 133.639 14.208 133.76 13.872C133.882 13.5267 133.952 13.158 133.97 12.766C133.98 12.4953 133.98 12.2247 133.97 11.954C133.952 11.562 133.882 11.198 133.76 10.862C133.639 10.5167 133.438 10.2413 133.158 10.036C132.888 9.82133 132.51 9.714 132.024 9.714C131.567 9.714 131.194 9.82133 130.904 10.036C130.624 10.2507 130.414 10.526 130.274 10.862C130.144 11.1887 130.069 11.5247 130.05 11.87C130.041 12.0193 130.036 12.1967 130.036 12.402C130.036 12.6073 130.041 12.7893 130.05 12.948C130.06 13.2747 130.134 13.5967 130.274 13.914C130.424 14.2313 130.643 14.4927 130.932 14.698C131.222 14.9033 131.586 15.006 132.024 15.006ZM139 16.14C138.533 16.14 138.109 16.0467 137.726 15.86C137.343 15.6733 137.035 15.4213 136.802 15.104C136.569 14.7867 136.452 14.4273 136.452 14.026C136.452 13.382 136.713 12.8687 137.236 12.486C137.759 12.1033 138.44 11.8513 139.28 11.73L141.366 11.436V11.03C141.366 10.582 141.235 10.232 140.974 9.98C140.722 9.728 140.307 9.602 139.728 9.602C139.308 9.602 138.967 9.686 138.706 9.854C138.454 10.022 138.277 10.2367 138.174 10.498C138.118 10.638 138.02 10.708 137.88 10.708H137.25C137.147 10.708 137.068 10.68 137.012 10.624C136.965 10.5587 136.942 10.484 136.942 10.4C136.942 10.26 136.993 10.0873 137.096 9.882C137.208 9.67667 137.376 9.476 137.6 9.28C137.824 9.084 138.109 8.92067 138.454 8.79C138.809 8.65 139.238 8.58 139.742 8.58C140.302 8.58 140.773 8.65467 141.156 8.804C141.539 8.944 141.837 9.13533 142.052 9.378C142.276 9.62067 142.435 9.896 142.528 10.204C142.631 10.512 142.682 10.8247 142.682 11.142V15.678C142.682 15.7713 142.649 15.8507 142.584 15.916C142.528 15.972 142.453 16 142.36 16H141.716C141.613 16 141.534 15.972 141.478 15.916C141.422 15.8507 141.394 15.7713 141.394 15.678V15.076C141.273 15.244 141.109 15.412 140.904 15.58C140.699 15.7387 140.442 15.874 140.134 15.986C139.826 16.0887 139.448 16.14 139 16.14ZM139.294 15.09C139.677 15.09 140.027 15.0107 140.344 14.852C140.661 14.684 140.909 14.4273 141.086 14.082C141.273 13.7367 141.366 13.3027 141.366 12.78V12.388L139.742 12.626C139.079 12.7193 138.58 12.878 138.244 13.102C137.908 13.3167 137.74 13.592 137.74 13.928C137.74 14.1893 137.815 14.4087 137.964 14.586C138.123 14.754 138.319 14.88 138.552 14.964C138.795 15.048 139.042 15.09 139.294 15.09ZM147.685 16.14C146.966 16.14 146.364 16.0047 145.879 15.734C145.403 15.454 145.039 15.062 144.787 14.558C144.544 14.0447 144.413 13.452 144.395 12.78C144.385 12.5 144.381 12.22 144.381 11.94C144.381 11.66 144.385 11.38 144.395 11.1C144.395 10.2507 144.465 9.546 144.605 8.986C144.745 8.426 144.955 7.96867 145.235 7.614C145.524 7.25 145.888 6.95133 146.327 6.718C146.765 6.48467 147.283 6.284 147.881 6.116C148.478 5.93867 149.159 5.752 149.925 5.556C150.009 5.53733 150.088 5.55133 150.163 5.598C150.247 5.64467 150.293 5.71 150.303 5.794L150.415 6.368C150.433 6.452 150.419 6.52667 150.373 6.592C150.335 6.65733 150.275 6.69933 150.191 6.718C149.491 6.89533 148.879 7.04933 148.357 7.18C147.834 7.31067 147.395 7.46467 147.041 7.642C146.686 7.81 146.401 8.02933 146.187 8.3C145.972 8.57067 145.823 8.93 145.739 9.378C145.664 9.826 145.641 10.4 145.669 11.1L145.361 10.974C145.407 10.6287 145.552 10.316 145.795 10.036C146.047 9.74667 146.359 9.51333 146.733 9.336C147.106 9.15867 147.503 9.07 147.923 9.07C148.567 9.07 149.108 9.20533 149.547 9.476C149.995 9.74667 150.335 10.1153 150.569 10.582C150.811 11.0487 150.947 11.5853 150.975 12.192C150.993 12.5093 150.993 12.7847 150.975 13.018C150.947 13.6247 150.807 14.166 150.555 14.642C150.303 15.1087 149.939 15.4773 149.463 15.748C148.987 16.0093 148.394 16.14 147.685 16.14ZM147.685 15.104C148.273 15.104 148.739 14.922 149.085 14.558C149.43 14.194 149.612 13.662 149.631 12.962C149.64 12.8687 149.645 12.7613 149.645 12.64C149.645 12.5187 149.64 12.3927 149.631 12.262C149.612 11.5527 149.43 11.016 149.085 10.652C148.749 10.288 148.324 10.106 147.811 10.106C147.223 10.106 146.737 10.288 146.355 10.652C145.972 11.016 145.767 11.5527 145.739 12.262C145.729 12.3927 145.725 12.5187 145.725 12.64C145.725 12.7613 145.729 12.8687 145.739 12.962C145.767 13.662 145.953 14.194 146.299 14.558C146.644 14.922 147.106 15.104 147.685 15.104ZM155.632 16.14C154.922 16.14 154.33 16.0047 153.854 15.734C153.378 15.4633 153.014 15.09 152.762 14.614C152.51 14.1287 152.37 13.578 152.342 12.962C152.332 12.8033 152.328 12.6027 152.328 12.36C152.328 12.108 152.332 11.9073 152.342 11.758C152.37 11.1327 152.51 10.582 152.762 10.106C153.023 9.63 153.392 9.25667 153.868 8.986C154.344 8.71533 154.932 8.58 155.632 8.58C156.332 8.58 156.92 8.71533 157.396 8.986C157.872 9.25667 158.236 9.63 158.488 10.106C158.749 10.582 158.894 11.1327 158.922 11.758C158.931 11.9073 158.936 12.108 158.936 12.36C158.936 12.6027 158.931 12.8033 158.922 12.962C158.894 13.578 158.754 14.1287 158.502 14.614C158.25 15.09 157.886 15.4633 157.41 15.734C156.934 16.0047 156.341 16.14 155.632 16.14ZM155.632 15.062C156.21 15.062 156.672 14.88 157.018 14.516C157.363 14.1427 157.55 13.6013 157.578 12.892C157.587 12.752 157.592 12.5747 157.592 12.36C157.592 12.1453 157.587 11.968 157.578 11.828C157.55 11.1187 157.363 10.582 157.018 10.218C156.672 9.84467 156.21 9.658 155.632 9.658C155.053 9.658 154.586 9.84467 154.232 10.218C153.886 10.582 153.704 11.1187 153.686 11.828C153.676 11.968 153.672 12.1453 153.672 12.36C153.672 12.5747 153.676 12.752 153.686 12.892C153.704 13.6013 153.886 14.1427 154.232 14.516C154.586 14.88 155.053 15.062 155.632 15.062ZM162.825 16C162.731 16 162.652 15.972 162.587 15.916C162.531 15.8507 162.503 15.7713 162.503 15.678V9.84H160.067C159.973 9.84 159.894 9.812 159.829 9.756C159.773 9.69067 159.745 9.61133 159.745 9.518V9.042C159.745 8.94867 159.773 8.874 159.829 8.818C159.894 8.75267 159.973 8.72 160.067 8.72H166.227C166.32 8.72 166.395 8.75267 166.451 8.818C166.516 8.874 166.549 8.94867 166.549 9.042V9.518C166.549 9.61133 166.516 9.69067 166.451 9.756C166.395 9.812 166.32 9.84 166.227 9.84H163.791V15.678C163.791 15.7713 163.763 15.8507 163.707 15.916C163.651 15.972 163.571 16 163.469 16H162.825ZM169.703 16.14C169.236 16.14 168.811 16.0467 168.429 15.86C168.046 15.6733 167.738 15.4213 167.505 15.104C167.271 14.7867 167.155 14.4273 167.155 14.026C167.155 13.382 167.416 12.8687 167.939 12.486C168.461 12.1033 169.143 11.8513 169.983 11.73L172.069 11.436V11.03C172.069 10.582 171.938 10.232 171.677 9.98C171.425 9.728 171.009 9.602 170.431 9.602C170.011 9.602 169.67 9.686 169.409 9.854C169.157 10.022 168.979 10.2367 168.877 10.498C168.821 10.638 168.723 10.708 168.583 10.708H167.953C167.85 10.708 167.771 10.68 167.715 10.624C167.668 10.5587 167.645 10.484 167.645 10.4C167.645 10.26 167.696 10.0873 167.799 9.882C167.911 9.67667 168.079 9.476 168.303 9.28C168.527 9.084 168.811 8.92067 169.157 8.79C169.511 8.65 169.941 8.58 170.445 8.58C171.005 8.58 171.476 8.65467 171.859 8.804C172.241 8.944 172.54 9.13533 172.755 9.378C172.979 9.62067 173.137 9.896 173.231 10.204C173.333 10.512 173.385 10.8247 173.385 11.142V15.678C173.385 15.7713 173.352 15.8507 173.287 15.916C173.231 15.972 173.156 16 173.063 16H172.419C172.316 16 172.237 15.972 172.181 15.916C172.125 15.8507 172.097 15.7713 172.097 15.678V15.076C171.975 15.244 171.812 15.412 171.607 15.58C171.401 15.7387 171.145 15.874 170.837 15.986C170.529 16.0887 170.151 16.14 169.703 16.14ZM169.997 15.09C170.379 15.09 170.729 15.0107 171.047 14.852C171.364 14.684 171.611 14.4273 171.789 14.082C171.975 13.7367 172.069 13.3027 172.069 12.78V12.388L170.445 12.626C169.782 12.7193 169.283 12.878 168.947 13.102C168.611 13.3167 168.443 13.592 168.443 13.928C168.443 14.1893 168.517 14.4087 168.667 14.586C168.825 14.754 169.021 14.88 169.255 14.964C169.497 15.048 169.745 15.09 169.997 15.09ZM175.629 16C175.536 16 175.457 15.972 175.391 15.916C175.335 15.8507 175.307 15.7713 175.307 15.678V9.042C175.307 8.94867 175.335 8.874 175.391 8.818C175.457 8.75267 175.536 8.72 175.629 8.72H176.301C176.395 8.72 176.469 8.75267 176.525 8.818C176.581 8.874 176.609 8.94867 176.609 9.042V11.73H180.431V9.042C180.431 8.94867 180.459 8.874 180.515 8.818C180.581 8.75267 180.66 8.72 180.753 8.72H181.411C181.505 8.72 181.579 8.75267 181.635 8.818C181.701 8.874 181.733 8.94867 181.733 9.042V15.678C181.733 15.7713 181.701 15.8507 181.635 15.916C181.579 15.972 181.505 16 181.411 16H180.753C180.66 16 180.581 15.972 180.515 15.916C180.459 15.8507 180.431 15.7713 180.431 15.678V12.85H176.609V15.678C176.609 15.7713 176.581 15.8507 176.525 15.916C176.469 15.972 176.395 16 176.301 16H175.629ZM194.804 17.96C194.701 17.96 194.622 17.9273 194.566 17.862C194.51 17.806 194.482 17.7313 194.482 17.638V16H187.594C187.491 16 187.412 15.9673 187.356 15.902C187.3 15.8367 187.272 15.7573 187.272 15.664V6.522C187.272 6.42867 187.3 6.354 187.356 6.298C187.412 6.23267 187.491 6.2 187.594 6.2H188.308C188.411 6.2 188.49 6.23267 188.546 6.298C188.611 6.354 188.644 6.42867 188.644 6.522V14.74H193.46V6.522C193.46 6.42867 193.488 6.354 193.544 6.298C193.609 6.23267 193.689 6.2 193.782 6.2H194.496C194.599 6.2 194.678 6.23267 194.734 6.298C194.799 6.354 194.832 6.42867 194.832 6.522V14.74H195.518C195.621 14.74 195.7 14.7727 195.756 14.838C195.821 14.894 195.854 14.9687 195.854 15.062V17.638C195.854 17.7313 195.821 17.806 195.756 17.862C195.7 17.9273 195.621 17.96 195.518 17.96H194.804ZM200.179 16.14C199.218 16.14 198.453 15.846 197.883 15.258C197.314 14.6607 197.001 13.8487 196.945 12.822C196.936 12.7007 196.931 12.5467 196.931 12.36C196.931 12.164 196.936 12.0053 196.945 11.884C196.983 11.2213 197.137 10.6427 197.407 10.148C197.678 9.644 198.047 9.25667 198.513 8.986C198.989 8.71533 199.545 8.58 200.179 8.58C200.889 8.58 201.481 8.72933 201.957 9.028C202.443 9.32667 202.811 9.75133 203.063 10.302C203.315 10.8527 203.441 11.4967 203.441 12.234V12.472C203.441 12.5747 203.409 12.654 203.343 12.71C203.287 12.766 203.213 12.794 203.119 12.794H198.275C198.275 12.8033 198.275 12.822 198.275 12.85C198.275 12.878 198.275 12.9013 198.275 12.92C198.294 13.3027 198.378 13.662 198.527 13.998C198.677 14.3247 198.891 14.5907 199.171 14.796C199.451 15.0013 199.787 15.104 200.179 15.104C200.515 15.104 200.795 15.0527 201.019 14.95C201.243 14.8473 201.425 14.7353 201.565 14.614C201.705 14.4833 201.799 14.3853 201.845 14.32C201.929 14.1987 201.995 14.1287 202.041 14.11C202.088 14.082 202.163 14.068 202.265 14.068H202.937C203.031 14.068 203.105 14.096 203.161 14.152C203.227 14.1987 203.255 14.2687 203.245 14.362C203.236 14.502 203.161 14.6747 203.021 14.88C202.881 15.076 202.681 15.272 202.419 15.468C202.158 15.664 201.841 15.8273 201.467 15.958C201.094 16.0793 200.665 16.14 200.179 16.14ZM198.275 11.828H202.111V11.786C202.111 11.366 202.032 10.9927 201.873 10.666C201.724 10.3393 201.505 10.0827 201.215 9.896C200.926 9.7 200.581 9.602 200.179 9.602C199.778 9.602 199.433 9.7 199.143 9.896C198.863 10.0827 198.649 10.3393 198.499 10.666C198.35 10.9927 198.275 11.366 198.275 11.786V11.828ZM205.347 16C205.254 16 205.175 15.972 205.109 15.916C205.053 15.8507 205.025 15.7713 205.025 15.678V9.042C205.025 8.94867 205.053 8.874 205.109 8.818C205.175 8.75267 205.254 8.72 205.347 8.72H206.019C206.113 8.72 206.187 8.75267 206.243 8.818C206.299 8.874 206.327 8.94867 206.327 9.042V11.73H210.149V9.042C210.149 8.94867 210.177 8.874 210.233 8.818C210.299 8.75267 210.378 8.72 210.471 8.72H211.129C211.223 8.72 211.297 8.75267 211.353 8.818C211.419 8.874 211.451 8.94867 211.451 9.042V15.678C211.451 15.7713 211.419 15.8507 211.353 15.916C211.297 15.972 211.223 16 211.129 16H210.471C210.378 16 210.299 15.972 210.233 15.916C210.177 15.8507 210.149 15.7713 210.149 15.678V12.85H206.327V15.678C206.327 15.7713 206.299 15.8507 206.243 15.916C206.187 15.972 206.113 16 206.019 16H205.347ZM215.693 16C215.599 16 215.52 15.972 215.455 15.916C215.399 15.8507 215.371 15.7713 215.371 15.678V9.84H212.935C212.841 9.84 212.762 9.812 212.697 9.756C212.641 9.69067 212.613 9.61133 212.613 9.518V9.042C212.613 8.94867 212.641 8.874 212.697 8.818C212.762 8.75267 212.841 8.72 212.935 8.72H219.095C219.188 8.72 219.263 8.75267 219.319 8.818C219.384 8.874 219.417 8.94867 219.417 9.042V9.518C219.417 9.61133 219.384 9.69067 219.319 9.756C219.263 9.812 219.188 9.84 219.095 9.84H216.659V15.678C216.659 15.7713 216.631 15.8507 216.575 15.916C216.519 15.972 216.439 16 216.337 16H215.693ZM220.877 18.66C220.783 18.66 220.704 18.6273 220.639 18.562C220.583 18.506 220.555 18.4313 220.555 18.338V9.042C220.555 8.94867 220.583 8.874 220.639 8.818C220.704 8.75267 220.783 8.72 220.877 8.72H221.521C221.614 8.72 221.689 8.75267 221.745 8.818C221.81 8.874 221.843 8.94867 221.843 9.042V9.658C222.067 9.35 222.365 9.09333 222.739 8.888C223.112 8.68267 223.579 8.58 224.139 8.58C224.661 8.58 225.105 8.66867 225.469 8.846C225.842 9.02333 226.145 9.266 226.379 9.574C226.621 9.882 226.803 10.232 226.925 10.624C227.046 11.016 227.111 11.436 227.121 11.884C227.13 12.0333 227.135 12.192 227.135 12.36C227.135 12.528 227.13 12.6867 227.121 12.836C227.111 13.2747 227.046 13.6947 226.925 14.096C226.803 14.488 226.621 14.838 226.379 15.146C226.145 15.4447 225.842 15.6873 225.469 15.874C225.105 16.0513 224.661 16.14 224.139 16.14C223.597 16.14 223.14 16.042 222.767 15.846C222.403 15.6407 222.104 15.3887 221.871 15.09V18.338C221.871 18.4313 221.843 18.506 221.787 18.562C221.731 18.6273 221.651 18.66 221.549 18.66H220.877ZM223.845 15.006C224.33 15.006 224.708 14.9033 224.979 14.698C225.259 14.4833 225.459 14.208 225.581 13.872C225.702 13.5267 225.772 13.158 225.791 12.766C225.8 12.4953 225.8 12.2247 225.791 11.954C225.772 11.562 225.702 11.198 225.581 10.862C225.459 10.5167 225.259 10.2413 224.979 10.036C224.708 9.82133 224.33 9.714 223.845 9.714C223.387 9.714 223.014 9.82133 222.725 10.036C222.445 10.2507 222.235 10.526 222.095 10.862C221.964 11.1887 221.889 11.5247 221.871 11.87C221.861 12.0193 221.857 12.1967 221.857 12.402C221.857 12.6073 221.861 12.7893 221.871 12.948C221.88 13.2747 221.955 13.5967 222.095 13.914C222.244 14.2313 222.463 14.4927 222.753 14.698C223.042 14.9033 223.406 15.006 223.845 15.006ZM231.773 16.14C231.063 16.14 230.471 16.0047 229.995 15.734C229.519 15.4633 229.155 15.09 228.903 14.614C228.651 14.1287 228.511 13.578 228.483 12.962C228.473 12.8033 228.469 12.6027 228.469 12.36C228.469 12.108 228.473 11.9073 228.483 11.758C228.511 11.1327 228.651 10.582 228.903 10.106C229.164 9.63 229.533 9.25667 230.009 8.986C230.485 8.71533 231.073 8.58 231.773 8.58C232.473 8.58 233.061 8.71533 233.537 8.986C234.013 9.25667 234.377 9.63 234.629 10.106C234.89 10.582 235.035 11.1327 235.063 11.758C235.072 11.9073 235.077 12.108 235.077 12.36C235.077 12.6027 235.072 12.8033 235.063 12.962C235.035 13.578 234.895 14.1287 234.643 14.614C234.391 15.09 234.027 15.4633 233.551 15.734C233.075 16.0047 232.482 16.14 231.773 16.14ZM231.773 15.062C232.351 15.062 232.813 14.88 233.159 14.516C233.504 14.1427 233.691 13.6013 233.719 12.892C233.728 12.752 233.733 12.5747 233.733 12.36C233.733 12.1453 233.728 11.968 233.719 11.828C233.691 11.1187 233.504 10.582 233.159 10.218C232.813 9.84467 232.351 9.658 231.773 9.658C231.194 9.658 230.727 9.84467 230.373 10.218C230.027 10.582 229.845 11.1187 229.827 11.828C229.817 11.968 229.813 12.1453 229.813 12.36C229.813 12.5747 229.817 12.752 229.827 12.892C229.845 13.6013 230.027 14.1427 230.373 14.516C230.727 14.88 231.194 15.062 231.773 15.062ZM237.048 16C236.954 16 236.88 15.972 236.824 15.916C236.768 15.86 236.74 15.7853 236.74 15.692V8.986C236.74 8.91133 236.768 8.85067 236.824 8.804C236.889 8.748 236.954 8.72 237.02 8.72H237.734C237.883 8.72 238 8.79467 238.084 8.944L240.464 13.396L242.858 8.944C242.942 8.79467 243.058 8.72 243.208 8.72H243.908C243.982 8.72 244.048 8.748 244.104 8.804C244.16 8.85067 244.188 8.91133 244.188 8.986V15.692C244.188 15.7853 244.16 15.86 244.104 15.916C244.048 15.972 243.978 16 243.894 16H243.208C243.114 16 243.04 15.972 242.984 15.916C242.928 15.86 242.9 15.7853 242.9 15.692V10.106L243.39 10.162L241.108 14.474C241.061 14.5673 241.005 14.6513 240.94 14.726C240.874 14.8007 240.776 14.838 240.646 14.838H240.282C240.16 14.838 240.067 14.8007 240.002 14.726C239.936 14.6513 239.876 14.5673 239.82 14.474L237.608 10.372L238.042 10.33V15.692C238.042 15.7853 238.014 15.86 237.958 15.916C237.902 15.972 237.827 16 237.734 16H237.048ZM249.87 18.66C249.768 18.66 249.688 18.6273 249.632 18.562C249.576 18.506 249.548 18.4313 249.548 18.338V17.862C249.548 17.7687 249.576 17.6893 249.632 17.624C249.688 17.568 249.768 17.54 249.87 17.54H250.234C250.449 17.54 250.622 17.498 250.752 17.414C250.883 17.33 251 17.1853 251.102 16.98C251.214 16.784 251.345 16.5133 251.494 16.168L254.532 8.958C254.56 8.88333 254.598 8.82733 254.644 8.79C254.7 8.74333 254.78 8.72 254.882 8.72H255.498C255.582 8.72 255.652 8.748 255.708 8.804C255.764 8.86 255.792 8.92533 255.792 9C255.792 9.03733 255.788 9.07467 255.778 9.112C255.769 9.14 255.75 9.18667 255.722 9.252L253.062 15.552C252.922 15.888 252.768 16.238 252.6 16.602C252.442 16.966 252.26 17.302 252.054 17.61C251.858 17.9273 251.625 18.1793 251.354 18.366C251.084 18.562 250.766 18.66 250.402 18.66H249.87ZM251.816 15.79L248.988 9.252C248.942 9.14 248.918 9.06067 248.918 9.014C248.928 8.93 248.96 8.86 249.016 8.804C249.072 8.748 249.138 8.72 249.212 8.72H249.87C249.973 8.72 250.048 8.74333 250.094 8.79C250.15 8.83667 250.192 8.89267 250.22 8.958L252.544 14.516L251.816 15.79ZM257.436 16C257.343 16 257.263 15.972 257.198 15.916C257.142 15.8507 257.114 15.7713 257.114 15.678V9.042C257.114 8.94867 257.142 8.874 257.198 8.818C257.263 8.75267 257.343 8.72 257.436 8.72H262.994C263.087 8.72 263.162 8.75267 263.218 8.818C263.283 8.874 263.316 8.94867 263.316 9.042V15.678C263.316 15.7713 263.283 15.8507 263.218 15.916C263.162 15.972 263.087 16 262.994 16H262.322C262.229 16 262.154 15.972 262.098 15.916C262.042 15.8507 262.014 15.7713 262.014 15.678V9.84H258.416V15.678C258.416 15.7713 258.388 15.8507 258.332 15.916C258.276 15.972 258.201 16 258.108 16H257.436ZM265.645 18.66C265.552 18.66 265.473 18.6273 265.407 18.562C265.351 18.506 265.323 18.4313 265.323 18.338V9.042C265.323 8.94867 265.351 8.874 265.407 8.818C265.473 8.75267 265.552 8.72 265.645 8.72H266.289C266.383 8.72 266.457 8.75267 266.513 8.818C266.579 8.874 266.611 8.94867 266.611 9.042V9.658C266.835 9.35 267.134 9.09333 267.507 8.888C267.881 8.68267 268.347 8.58 268.907 8.58C269.43 8.58 269.873 8.66867 270.237 8.846C270.611 9.02333 270.914 9.266 271.147 9.574C271.39 9.882 271.572 10.232 271.693 10.624C271.815 11.016 271.88 11.436 271.889 11.884C271.899 12.0333 271.903 12.192 271.903 12.36C271.903 12.528 271.899 12.6867 271.889 12.836C271.88 13.2747 271.815 13.6947 271.693 14.096C271.572 14.488 271.39 14.838 271.147 15.146C270.914 15.4447 270.611 15.6873 270.237 15.874C269.873 16.0513 269.43 16.14 268.907 16.14C268.366 16.14 267.909 16.042 267.535 15.846C267.171 15.6407 266.873 15.3887 266.639 15.09V18.338C266.639 18.4313 266.611 18.506 266.555 18.562C266.499 18.6273 266.42 18.66 266.317 18.66H265.645ZM268.613 15.006C269.099 15.006 269.477 14.9033 269.747 14.698C270.027 14.4833 270.228 14.208 270.349 13.872C270.471 13.5267 270.541 13.158 270.559 12.766C270.569 12.4953 270.569 12.2247 270.559 11.954C270.541 11.562 270.471 11.198 270.349 10.862C270.228 10.5167 270.027 10.2413 269.747 10.036C269.477 9.82133 269.099 9.714 268.613 9.714C268.156 9.714 267.783 9.82133 267.493 10.036C267.213 10.2507 267.003 10.526 266.863 10.862C266.733 11.1887 266.658 11.5247 266.639 11.87C266.63 12.0193 266.625 12.1967 266.625 12.402C266.625 12.6073 266.63 12.7893 266.639 12.948C266.649 13.2747 266.723 13.5967 266.863 13.914C267.013 14.2313 267.232 14.4927 267.521 14.698C267.811 14.9033 268.175 15.006 268.613 15.006ZM275.589 16.14C275.122 16.14 274.698 16.0467 274.315 15.86C273.932 15.6733 273.624 15.4213 273.391 15.104C273.158 14.7867 273.041 14.4273 273.041 14.026C273.041 13.382 273.302 12.8687 273.825 12.486C274.348 12.1033 275.029 11.8513 275.869 11.73L277.955 11.436V11.03C277.955 10.582 277.824 10.232 277.563 9.98C277.311 9.728 276.896 9.602 276.317 9.602C275.897 9.602 275.556 9.686 275.295 9.854C275.043 10.022 274.866 10.2367 274.763 10.498C274.707 10.638 274.609 10.708 274.469 10.708H273.839C273.736 10.708 273.657 10.68 273.601 10.624C273.554 10.5587 273.531 10.484 273.531 10.4C273.531 10.26 273.582 10.0873 273.685 9.882C273.797 9.67667 273.965 9.476 274.189 9.28C274.413 9.084 274.698 8.92067 275.043 8.79C275.398 8.65 275.827 8.58 276.331 8.58C276.891 8.58 277.362 8.65467 277.745 8.804C278.128 8.944 278.426 9.13533 278.641 9.378C278.865 9.62067 279.024 9.896 279.117 10.204C279.22 10.512 279.271 10.8247 279.271 11.142V15.678C279.271 15.7713 279.238 15.8507 279.173 15.916C279.117 15.972 279.042 16 278.949 16H278.305C278.202 16 278.123 15.972 278.067 15.916C278.011 15.8507 277.983 15.7713 277.983 15.678V15.076C277.862 15.244 277.698 15.412 277.493 15.58C277.288 15.7387 277.031 15.874 276.723 15.986C276.415 16.0887 276.037 16.14 275.589 16.14ZM275.883 15.09C276.266 15.09 276.616 15.0107 276.933 14.852C277.25 14.684 277.498 14.4273 277.675 14.082C277.862 13.7367 277.955 13.3027 277.955 12.78V12.388L276.331 12.626C275.668 12.7193 275.169 12.878 274.833 13.102C274.497 13.3167 274.329 13.592 274.329 13.928C274.329 14.1893 274.404 14.4087 274.553 14.586C274.712 14.754 274.908 14.88 275.141 14.964C275.384 15.048 275.631 15.09 275.883 15.09ZM281.516 16C281.422 16 281.343 15.972 281.278 15.916C281.222 15.8507 281.194 15.7713 281.194 15.678V9.042C281.194 8.94867 281.222 8.874 281.278 8.818C281.343 8.75267 281.422 8.72 281.516 8.72H284.428C285.305 8.72 285.963 8.89733 286.402 9.252C286.85 9.60667 287.074 10.0827 287.074 10.68C287.074 11.1 286.994 11.4173 286.836 11.632C286.677 11.8467 286.453 12.0287 286.164 12.178C286.518 12.3273 286.784 12.57 286.962 12.906C287.148 13.2327 287.242 13.5733 287.242 13.928C287.242 14.6 287.004 15.1133 286.528 15.468C286.052 15.8227 285.389 16 284.54 16H281.516ZM282.482 14.978H284.428C284.876 14.978 285.235 14.894 285.506 14.726C285.786 14.5487 285.926 14.2827 285.926 13.928C285.926 13.5547 285.8 13.284 285.548 13.116C285.296 12.9387 284.922 12.85 284.428 12.85H282.482V14.978ZM282.482 11.814H284.344C284.792 11.814 285.146 11.716 285.408 11.52C285.678 11.324 285.814 11.0487 285.814 10.694C285.814 10.33 285.678 10.0827 285.408 9.952C285.146 9.812 284.792 9.742 284.344 9.742H282.482V11.814ZM288.601 16C288.508 16 288.429 15.9673 288.363 15.902C288.298 15.8367 288.265 15.7573 288.265 15.664V15.146C288.265 14.95 288.363 14.8473 288.559 14.838C288.849 14.8287 289.091 14.6933 289.287 14.432C289.483 14.1613 289.633 13.7367 289.735 13.158C289.838 12.57 289.889 11.7953 289.889 10.834V9.042C289.889 8.94867 289.917 8.874 289.973 8.818C290.039 8.75267 290.118 8.72 290.211 8.72H294.663C294.757 8.72 294.831 8.75267 294.887 8.818C294.953 8.874 294.985 8.94867 294.985 9.042V15.678C294.985 15.7713 294.953 15.8507 294.887 15.916C294.831 15.972 294.757 16 294.663 16H293.991C293.898 16 293.823 15.972 293.767 15.916C293.711 15.8507 293.683 15.7713 293.683 15.678V9.84H291.163V10.988C291.163 11.884 291.112 12.654 291.009 13.298C290.907 13.9327 290.748 14.4507 290.533 14.852C290.328 15.244 290.062 15.5333 289.735 15.72C289.418 15.9067 289.04 16 288.601 16ZM299.88 16.14C298.919 16.14 298.154 15.846 297.584 15.258C297.015 14.6607 296.702 13.8487 296.646 12.822C296.637 12.7007 296.632 12.5467 296.632 12.36C296.632 12.164 296.637 12.0053 296.646 11.884C296.684 11.2213 296.838 10.6427 297.108 10.148C297.379 9.644 297.748 9.25667 298.214 8.986C298.69 8.71533 299.246 8.58 299.88 8.58C300.59 8.58 301.182 8.72933 301.658 9.028C302.144 9.32667 302.512 9.75133 302.764 10.302C303.016 10.8527 303.142 11.4967 303.142 12.234V12.472C303.142 12.5747 303.11 12.654 303.044 12.71C302.988 12.766 302.914 12.794 302.82 12.794H297.976C297.976 12.8033 297.976 12.822 297.976 12.85C297.976 12.878 297.976 12.9013 297.976 12.92C297.995 13.3027 298.079 13.662 298.228 13.998C298.378 14.3247 298.592 14.5907 298.872 14.796C299.152 15.0013 299.488 15.104 299.88 15.104C300.216 15.104 300.496 15.0527 300.72 14.95C300.944 14.8473 301.126 14.7353 301.266 14.614C301.406 14.4833 301.5 14.3853 301.546 14.32C301.63 14.1987 301.696 14.1287 301.742 14.11C301.789 14.082 301.864 14.068 301.966 14.068H302.638C302.732 14.068 302.806 14.096 302.862 14.152C302.928 14.1987 302.956 14.2687 302.946 14.362C302.937 14.502 302.862 14.6747 302.722 14.88C302.582 15.076 302.382 15.272 302.12 15.468C301.859 15.664 301.542 15.8273 301.168 15.958C300.795 16.0793 300.366 16.14 299.88 16.14ZM297.976 11.828H301.812V11.786C301.812 11.366 301.733 10.9927 301.574 10.666C301.425 10.3393 301.206 10.0827 300.916 9.896C300.627 9.7 300.282 9.602 299.88 9.602C299.479 9.602 299.134 9.7 298.844 9.896C298.564 10.0827 298.35 10.3393 298.2 10.666C298.051 10.9927 297.976 11.366 297.976 11.786V11.828ZM305.048 16C304.955 16 304.876 15.972 304.81 15.916C304.754 15.8507 304.726 15.7713 304.726 15.678V9.042C304.726 8.94867 304.754 8.874 304.81 8.818C304.876 8.75267 304.955 8.72 305.048 8.72H305.72C305.814 8.72 305.888 8.75267 305.944 8.818C306 8.874 306.028 8.94867 306.028 9.042V11.73H309.85V9.042C309.85 8.94867 309.878 8.874 309.934 8.818C310 8.75267 310.079 8.72 310.172 8.72H310.83C310.924 8.72 310.998 8.75267 311.054 8.818C311.12 8.874 311.152 8.94867 311.152 9.042V15.678C311.152 15.7713 311.12 15.8507 311.054 15.916C310.998 15.972 310.924 16 310.83 16H310.172C310.079 16 310 15.972 309.934 15.916C309.878 15.8507 309.85 15.7713 309.85 15.678V12.85H306.028V15.678C306.028 15.7713 306 15.8507 305.944 15.916C305.888 15.972 305.814 16 305.72 16H305.048ZM313.476 16C313.392 16 313.317 15.972 313.252 15.916C313.196 15.8507 313.168 15.7807 313.168 15.706V9.042C313.168 8.94867 313.196 8.874 313.252 8.818C313.317 8.75267 313.396 8.72 313.49 8.72H314.162C314.255 8.72 314.33 8.75267 314.386 8.818C314.442 8.874 314.47 8.94867 314.47 9.042V14.978L314.106 14.6L318.348 8.93C318.394 8.874 318.446 8.82733 318.502 8.79C318.558 8.74333 318.628 8.72 318.712 8.72H319.356C319.43 8.72 319.496 8.748 319.552 8.804C319.617 8.86 319.65 8.92533 319.65 9V15.678C319.65 15.7713 319.617 15.8507 319.552 15.916C319.496 15.972 319.421 16 319.328 16H318.67C318.567 16 318.488 15.972 318.432 15.916C318.376 15.8507 318.348 15.7713 318.348 15.678V10.092L318.74 10.078L314.47 15.79C314.432 15.8367 314.386 15.8833 314.33 15.93C314.274 15.9767 314.199 16 314.106 16H313.476ZM326.145 16C326.042 16 325.963 15.972 325.907 15.916C325.851 15.8507 325.823 15.7713 325.823 15.678V13.396H324.213V13.326C323.336 13.326 322.682 13.1113 322.253 12.682C321.833 12.2433 321.623 11.688 321.623 11.016C321.623 10.232 321.852 9.65333 322.309 9.28C322.776 8.90667 323.476 8.72 324.409 8.72H326.817C326.91 8.72 326.985 8.75267 327.041 8.818C327.106 8.874 327.139 8.94867 327.139 9.042V15.678C327.139 15.7713 327.106 15.8507 327.041 15.916C326.985 15.972 326.91 16 326.817 16H326.145ZM321.707 16C321.623 16 321.553 15.972 321.497 15.916C321.441 15.86 321.413 15.7947 321.413 15.72C321.413 15.6827 321.418 15.6453 321.427 15.608C321.446 15.5613 321.474 15.5147 321.511 15.468L323.177 13.004L324.521 13.102L322.743 15.79C322.706 15.8367 322.654 15.8833 322.589 15.93C322.524 15.9767 322.454 16 322.379 16H321.707ZM324.255 12.346H325.837V9.77H324.367C323.844 9.77 323.457 9.86333 323.205 10.05C322.962 10.2273 322.841 10.5493 322.841 11.016C322.841 11.3987 322.953 11.716 323.177 11.968C323.41 12.22 323.77 12.346 324.255 12.346ZM70.358 37C70.2647 37 70.1853 36.972 70.12 36.916C70.064 36.8507 70.036 36.7713 70.036 36.678V30.042C70.036 29.9487 70.064 29.874 70.12 29.818C70.1853 29.7527 70.2647 29.72 70.358 29.72H75.916C76.0093 29.72 76.084 29.7527 76.14 29.818C76.2053 29.874 76.238 29.9487 76.238 30.042V36.678C76.238 36.7713 76.2053 36.8507 76.14 36.916C76.084 36.972 76.0093 37 75.916 37H75.244C75.1507 37 75.076 36.972 75.02 36.916C74.964 36.8507 74.936 36.7713 74.936 36.678V30.84H71.338V36.678C71.338 36.7713 71.31 36.8507 71.254 36.916C71.198 36.972 71.1233 37 71.03 37H70.358ZM78.5672 39.66C78.4738 39.66 78.3945 39.6273 78.3292 39.562C78.2732 39.506 78.2452 39.4313 78.2452 39.338V30.042C78.2452 29.9487 78.2732 29.874 78.3292 29.818C78.3945 29.7527 78.4738 29.72 78.5672 29.72H79.2112C79.3045 29.72 79.3792 29.7527 79.4352 29.818C79.5005 29.874 79.5332 29.9487 79.5332 30.042V30.658C79.7572 30.35 80.0558 30.0933 80.4292 29.888C80.8025 29.6827 81.2692 29.58 81.8292 29.58C82.3518 29.58 82.7952 29.6687 83.1592 29.846C83.5325 30.0233 83.8358 30.266 84.0692 30.574C84.3118 30.882 84.4938 31.232 84.6152 31.624C84.7365 32.016 84.8018 32.436 84.8112 32.884C84.8205 33.0333 84.8252 33.192 84.8252 33.36C84.8252 33.528 84.8205 33.6867 84.8112 33.836C84.8018 34.2747 84.7365 34.6947 84.6152 35.096C84.4938 35.488 84.3118 35.838 84.0692 36.146C83.8358 36.4447 83.5325 36.6873 83.1592 36.874C82.7952 37.0513 82.3518 37.14 81.8292 37.14C81.2878 37.14 80.8305 37.042 80.4572 36.846C80.0932 36.6407 79.7945 36.3887 79.5612 36.09V39.338C79.5612 39.4313 79.5332 39.506 79.4772 39.562C79.4212 39.6273 79.3418 39.66 79.2392 39.66H78.5672ZM81.5352 36.006C82.0205 36.006 82.3985 35.9033 82.6692 35.698C82.9492 35.4833 83.1498 35.208 83.2712 34.872C83.3925 34.5267 83.4625 34.158 83.4812 33.766C83.4905 33.4953 83.4905 33.2247 83.4812 32.954C83.4625 32.562 83.3925 32.198 83.2712 31.862C83.1498 31.5167 82.9492 31.2413 82.6692 31.036C82.3985 30.8213 82.0205 30.714 81.5352 30.714C81.0778 30.714 80.7045 30.8213 80.4152 31.036C80.1352 31.2507 79.9252 31.526 79.7852 31.862C79.6545 32.1887 79.5798 32.5247 79.5612 32.87C79.5518 33.0193 79.5472 33.1967 79.5472 33.402C79.5472 33.6073 79.5518 33.7893 79.5612 33.948C79.5705 34.2747 79.6452 34.5967 79.7852 34.914C79.9345 35.2313 80.1538 35.4927 80.4432 35.698C80.7325 35.9033 81.0965 36.006 81.5352 36.006ZM89.463 37.14C88.7537 37.14 88.161 37.0047 87.685 36.734C87.209 36.4633 86.845 36.09 86.593 35.614C86.341 35.1287 86.201 34.578 86.173 33.962C86.1637 33.8033 86.159 33.6027 86.159 33.36C86.159 33.108 86.1637 32.9073 86.173 32.758C86.201 32.1327 86.341 31.582 86.593 31.106C86.8543 30.63 87.223 30.2567 87.699 29.986C88.175 29.7153 88.763 29.58 89.463 29.58C90.163 29.58 90.751 29.7153 91.227 29.986C91.703 30.2567 92.067 30.63 92.319 31.106C92.5803 31.582 92.725 32.1327 92.753 32.758C92.7623 32.9073 92.767 33.108 92.767 33.36C92.767 33.6027 92.7623 33.8033 92.753 33.962C92.725 34.578 92.585 35.1287 92.333 35.614C92.081 36.09 91.717 36.4633 91.241 36.734C90.765 37.0047 90.1723 37.14 89.463 37.14ZM89.463 36.062C90.0417 36.062 90.5037 35.88 90.849 35.516C91.1943 35.1427 91.381 34.6013 91.409 33.892C91.4183 33.752 91.423 33.5747 91.423 33.36C91.423 33.1453 91.4183 32.968 91.409 32.828C91.381 32.1187 91.1943 31.582 90.849 31.218C90.5037 30.8447 90.0417 30.658 89.463 30.658C88.8843 30.658 88.4177 30.8447 88.063 31.218C87.7177 31.582 87.5357 32.1187 87.517 32.828C87.5077 32.968 87.503 33.1453 87.503 33.36C87.503 33.5747 87.5077 33.752 87.517 33.892C87.5357 34.6013 87.7177 35.1427 88.063 35.516C88.4177 35.88 88.8843 36.062 89.463 36.062ZM97.3281 37.14C96.3667 37.14 95.6014 36.846 95.0321 36.258C94.4627 35.6607 94.1501 34.8487 94.0941 33.822C94.0847 33.7007 94.0801 33.5467 94.0801 33.36C94.0801 33.164 94.0847 33.0053 94.0941 32.884C94.1314 32.2213 94.2854 31.6427 94.5561 31.148C94.8267 30.644 95.1954 30.2567 95.6621 29.986C96.1381 29.7153 96.6934 29.58 97.3281 29.58C98.0374 29.58 98.6301 29.7293 99.1061 30.028C99.5914 30.3267 99.9601 30.7513 100.212 31.302C100.464 31.8527 100.59 32.4967 100.59 33.234V33.472C100.59 33.5747 100.557 33.654 100.492 33.71C100.436 33.766 100.361 33.794 100.268 33.794H95.4241C95.4241 33.8033 95.4241 33.822 95.4241 33.85C95.4241 33.878 95.4241 33.9013 95.4241 33.92C95.4427 34.3027 95.5267 34.662 95.6761 34.998C95.8254 35.3247 96.0401 35.5907 96.3201 35.796C96.6001 36.0013 96.9361 36.104 97.3281 36.104C97.6641 36.104 97.9441 36.0527 98.1681 35.95C98.3921 35.8473 98.5741 35.7353 98.7141 35.614C98.8541 35.4833 98.9474 35.3853 98.9941 35.32C99.0781 35.1987 99.1434 35.1287 99.1901 35.11C99.2367 35.082 99.3114 35.068 99.4141 35.068H100.086C100.179 35.068 100.254 35.096 100.31 35.152C100.375 35.1987 100.403 35.2687 100.394 35.362C100.385 35.502 100.31 35.6747 100.17 35.88C100.03 36.076 99.8294 36.272 99.5681 36.468C99.3067 36.664 98.9894 36.8273 98.6161 36.958C98.2427 37.0793 97.8134 37.14 97.3281 37.14ZM95.4241 32.828H99.2601V32.786C99.2601 32.366 99.1807 31.9927 99.0221 31.666C98.8727 31.3393 98.6534 31.0827 98.3641 30.896C98.0747 30.7 97.7294 30.602 97.3281 30.602C96.9267 30.602 96.5814 30.7 96.2921 30.896C96.0121 31.0827 95.7974 31.3393 95.6481 31.666C95.4987 31.9927 95.4241 32.366 95.4241 32.786V32.828ZM102.496 37C102.403 37 102.323 36.972 102.258 36.916C102.202 36.8507 102.174 36.7713 102.174 36.678V30.042C102.174 29.9487 102.202 29.874 102.258 29.818C102.323 29.7527 102.403 29.72 102.496 29.72H103.154C103.247 29.72 103.322 29.7527 103.378 29.818C103.443 29.874 103.476 29.9487 103.476 30.042V32.73H104.75L106.64 29.93C106.687 29.8647 106.738 29.8133 106.794 29.776C106.85 29.7387 106.925 29.72 107.018 29.72H107.746C107.83 29.72 107.9 29.7387 107.956 29.776C108.012 29.8133 108.04 29.8693 108.04 29.944C108.04 29.9627 108.031 29.9907 108.012 30.028C108.003 30.056 107.989 30.084 107.97 30.112L105.87 33.206L108.25 36.594C108.297 36.65 108.32 36.7107 108.32 36.776C108.32 36.8507 108.292 36.9067 108.236 36.944C108.189 36.9813 108.124 37 108.04 37H107.186C107.102 37 107.032 36.9813 106.976 36.944C106.92 36.9067 106.869 36.8553 106.822 36.79L104.764 33.864H103.476V36.678C103.476 36.7713 103.443 36.8507 103.378 36.916C103.322 36.972 103.247 37 103.154 37H102.496ZM111.816 37C111.723 37 111.643 36.972 111.578 36.916C111.522 36.8507 111.494 36.7713 111.494 36.678V30.84H109.058C108.965 30.84 108.885 30.812 108.82 30.756C108.764 30.6907 108.736 30.6113 108.736 30.518V30.042C108.736 29.9487 108.764 29.874 108.82 29.818C108.885 29.7527 108.965 29.72 109.058 29.72H115.218C115.311 29.72 115.386 29.7527 115.442 29.818C115.507 29.874 115.54 29.9487 115.54 30.042V30.518C115.54 30.6113 115.507 30.6907 115.442 30.756C115.386 30.812 115.311 30.84 115.218 30.84H112.782V36.678C112.782 36.7713 112.754 36.8507 112.698 36.916C112.642 36.972 112.563 37 112.46 37H111.816ZM118.694 37.14C118.227 37.14 117.803 37.0467 117.42 36.86C117.037 36.6733 116.729 36.4213 116.496 36.104C116.263 35.7867 116.146 35.4273 116.146 35.026C116.146 34.382 116.407 33.8687 116.93 33.486C117.453 33.1033 118.134 32.8513 118.974 32.73L121.06 32.436V32.03C121.06 31.582 120.929 31.232 120.668 30.98C120.416 30.728 120.001 30.602 119.422 30.602C119.002 30.602 118.661 30.686 118.4 30.854C118.148 31.022 117.971 31.2367 117.868 31.498C117.812 31.638 117.714 31.708 117.574 31.708H116.944C116.841 31.708 116.762 31.68 116.706 31.624C116.659 31.5587 116.636 31.484 116.636 31.4C116.636 31.26 116.687 31.0873 116.79 30.882C116.902 30.6767 117.07 30.476 117.294 30.28C117.518 30.084 117.803 29.9207 118.148 29.79C118.503 29.65 118.932 29.58 119.436 29.58C119.996 29.58 120.467 29.6547 120.85 29.804C121.233 29.944 121.531 30.1353 121.746 30.378C121.97 30.6207 122.129 30.896 122.222 31.204C122.325 31.512 122.376 31.8247 122.376 32.142V36.678C122.376 36.7713 122.343 36.8507 122.278 36.916C122.222 36.972 122.147 37 122.054 37H121.41C121.307 37 121.228 36.972 121.172 36.916C121.116 36.8507 121.088 36.7713 121.088 36.678V36.076C120.967 36.244 120.803 36.412 120.598 36.58C120.393 36.7387 120.136 36.874 119.828 36.986C119.52 37.0887 119.142 37.14 118.694 37.14ZM118.988 36.09C119.371 36.09 119.721 36.0107 120.038 35.852C120.355 35.684 120.603 35.4273 120.78 35.082C120.967 34.7367 121.06 34.3027 121.06 33.78V33.388L119.436 33.626C118.773 33.7193 118.274 33.878 117.938 34.102C117.602 34.3167 117.434 34.592 117.434 34.928C117.434 35.1893 117.509 35.4087 117.658 35.586C117.817 35.754 118.013 35.88 118.246 35.964C118.489 36.048 118.736 36.09 118.988 36.09ZM124.607 37C124.513 37 124.439 36.972 124.383 36.916C124.327 36.86 124.299 36.7853 124.299 36.692V29.986C124.299 29.9113 124.327 29.8507 124.383 29.804C124.448 29.748 124.513 29.72 124.579 29.72H125.293C125.442 29.72 125.559 29.7947 125.643 29.944L128.023 34.396L130.417 29.944C130.501 29.7947 130.617 29.72 130.767 29.72H131.467C131.541 29.72 131.607 29.748 131.663 29.804C131.719 29.8507 131.747 29.9113 131.747 29.986V36.692C131.747 36.7853 131.719 36.86 131.663 36.916C131.607 36.972 131.537 37 131.453 37H130.767C130.673 37 130.599 36.972 130.543 36.916C130.487 36.86 130.459 36.7853 130.459 36.692V31.106L130.949 31.162L128.667 35.474C128.62 35.5673 128.564 35.6513 128.499 35.726C128.433 35.8007 128.335 35.838 128.205 35.838H127.841C127.719 35.838 127.626 35.8007 127.561 35.726C127.495 35.6513 127.435 35.5673 127.379 35.474L125.167 31.372L125.601 31.33V36.692C125.601 36.7853 125.573 36.86 125.517 36.916C125.461 36.972 125.386 37 125.293 37H124.607ZM134.06 37C133.976 37 133.901 36.972 133.836 36.916C133.78 36.8507 133.752 36.7807 133.752 36.706V30.042C133.752 29.9487 133.78 29.874 133.836 29.818C133.901 29.7527 133.98 29.72 134.074 29.72H134.746C134.839 29.72 134.914 29.7527 134.97 29.818C135.026 29.874 135.054 29.9487 135.054 30.042V35.978L134.69 35.6L138.932 29.93C138.978 29.874 139.03 29.8273 139.086 29.79C139.142 29.7433 139.212 29.72 139.296 29.72H139.94C140.014 29.72 140.08 29.748 140.136 29.804C140.201 29.86 140.234 29.9253 140.234 30V36.678C140.234 36.7713 140.201 36.8507 140.136 36.916C140.08 36.972 140.005 37 139.912 37H139.254C139.151 37 139.072 36.972 139.016 36.916C138.96 36.8507 138.932 36.7713 138.932 36.678V31.092L139.324 31.078L135.054 36.79C135.016 36.8367 134.97 36.8833 134.914 36.93C134.858 36.9767 134.783 37 134.69 37H134.06ZM148.838 37.14C148.157 37.14 147.55 37.0373 147.018 36.832C146.496 36.6267 146.076 36.3373 145.758 35.964C145.441 35.5907 145.254 35.1567 145.198 34.662C145.189 34.578 145.212 34.5127 145.268 34.466C145.334 34.41 145.408 34.382 145.492 34.382H146.234C146.328 34.382 146.398 34.4053 146.444 34.452C146.491 34.4893 146.533 34.5593 146.57 34.662C146.673 35.0167 146.906 35.32 147.27 35.572C147.634 35.824 148.148 35.95 148.81 35.95C149.576 35.95 150.168 35.6887 150.588 35.166C151.018 34.634 151.232 33.906 151.232 32.982V32.66H147.83C147.737 32.66 147.658 32.6273 147.592 32.562C147.536 32.4967 147.508 32.4173 147.508 32.324V31.848C147.508 31.7453 147.536 31.666 147.592 31.61C147.658 31.5447 147.737 31.512 147.83 31.512H151.232V31.232C151.232 30.2053 151.022 29.454 150.602 28.978C150.182 28.4927 149.585 28.25 148.81 28.25C148.148 28.25 147.634 28.3807 147.27 28.642C146.906 28.894 146.678 29.1973 146.584 29.552C146.547 29.6547 146.505 29.7293 146.458 29.776C146.421 29.8133 146.351 29.832 146.248 29.832H145.506C145.422 29.832 145.348 29.804 145.282 29.748C145.226 29.692 145.203 29.622 145.212 29.538C145.268 29.034 145.455 28.6 145.772 28.236C146.09 27.8627 146.51 27.5733 147.032 27.368C147.555 27.1627 148.157 27.06 148.838 27.06C149.548 27.06 150.182 27.2 150.742 27.48C151.312 27.76 151.76 28.208 152.086 28.824C152.422 29.44 152.604 30.2473 152.632 31.246C152.642 31.47 152.646 31.6707 152.646 31.848C152.646 32.0253 152.646 32.2027 152.646 32.38C152.646 32.548 152.642 32.7393 152.632 32.954C152.604 33.962 152.422 34.774 152.086 35.39C151.76 35.9967 151.316 36.44 150.756 36.72C150.196 37 149.557 37.14 148.838 37.14ZM154.063 37C153.97 37 153.891 36.9673 153.825 36.902C153.76 36.8367 153.727 36.7573 153.727 36.664V36.146C153.727 35.95 153.825 35.8473 154.021 35.838C154.311 35.8287 154.553 35.6933 154.749 35.432C154.945 35.1613 155.095 34.7367 155.197 34.158C155.3 33.57 155.351 32.7953 155.351 31.834V30.042C155.351 29.9487 155.379 29.874 155.435 29.818C155.501 29.7527 155.58 29.72 155.673 29.72H160.125C160.219 29.72 160.293 29.7527 160.349 29.818C160.415 29.874 160.447 29.9487 160.447 30.042V36.678C160.447 36.7713 160.415 36.8507 160.349 36.916C160.293 36.972 160.219 37 160.125 37H159.453C159.36 37 159.285 36.972 159.229 36.916C159.173 36.8507 159.145 36.7713 159.145 36.678V30.84H156.625V31.988C156.625 32.884 156.574 33.654 156.471 34.298C156.369 34.9327 156.21 35.4507 155.995 35.852C155.79 36.244 155.524 36.5333 155.197 36.72C154.88 36.9067 154.502 37 154.063 37ZM165.342 37.14C164.381 37.14 163.616 36.846 163.046 36.258C162.477 35.6607 162.164 34.8487 162.108 33.822C162.099 33.7007 162.094 33.5467 162.094 33.36C162.094 33.164 162.099 33.0053 162.108 32.884C162.146 32.2213 162.3 31.6427 162.57 31.148C162.841 30.644 163.21 30.2567 163.676 29.986C164.152 29.7153 164.708 29.58 165.342 29.58C166.052 29.58 166.644 29.7293 167.12 30.028C167.606 30.3267 167.974 30.7513 168.226 31.302C168.478 31.8527 168.604 32.4967 168.604 33.234V33.472C168.604 33.5747 168.572 33.654 168.506 33.71C168.45 33.766 168.376 33.794 168.282 33.794H163.438C163.438 33.8033 163.438 33.822 163.438 33.85C163.438 33.878 163.438 33.9013 163.438 33.92C163.457 34.3027 163.541 34.662 163.69 34.998C163.84 35.3247 164.054 35.5907 164.334 35.796C164.614 36.0013 164.95 36.104 165.342 36.104C165.678 36.104 165.958 36.0527 166.182 35.95C166.406 35.8473 166.588 35.7353 166.728 35.614C166.868 35.4833 166.962 35.3853 167.008 35.32C167.092 35.1987 167.158 35.1287 167.204 35.11C167.251 35.082 167.326 35.068 167.428 35.068H168.1C168.194 35.068 168.268 35.096 168.324 35.152C168.39 35.1987 168.418 35.2687 168.408 35.362C168.399 35.502 168.324 35.6747 168.184 35.88C168.044 36.076 167.844 36.272 167.582 36.468C167.321 36.664 167.004 36.8273 166.63 36.958C166.257 37.0793 165.828 37.14 165.342 37.14ZM163.438 32.828H167.274V32.786C167.274 32.366 167.195 31.9927 167.036 31.666C166.887 31.3393 166.668 31.0827 166.378 30.896C166.089 30.7 165.744 30.602 165.342 30.602C164.941 30.602 164.596 30.7 164.306 30.896C164.026 31.0827 163.812 31.3393 163.662 31.666C163.513 31.9927 163.438 32.366 163.438 32.786V32.828ZM170.51 37C170.417 37 170.338 36.972 170.272 36.916C170.216 36.8507 170.188 36.7713 170.188 36.678V30.042C170.188 29.9487 170.216 29.874 170.272 29.818C170.338 29.7527 170.417 29.72 170.51 29.72H171.168C171.262 29.72 171.336 29.7527 171.392 29.818C171.458 29.874 171.49 29.9487 171.49 30.042V32.73H172.764L174.654 29.93C174.701 29.8647 174.752 29.8133 174.808 29.776C174.864 29.7387 174.939 29.72 175.032 29.72H175.76C175.844 29.72 175.914 29.7387 175.97 29.776C176.026 29.8133 176.054 29.8693 176.054 29.944C176.054 29.9627 176.045 29.9907 176.026 30.028C176.017 30.056 176.003 30.084 175.984 30.112L173.884 33.206L176.264 36.594C176.311 36.65 176.334 36.7107 176.334 36.776C176.334 36.8507 176.306 36.9067 176.25 36.944C176.204 36.9813 176.138 37 176.054 37H175.2C175.116 37 175.046 36.9813 174.99 36.944C174.934 36.9067 174.883 36.8553 174.836 36.79L172.778 33.864H171.49V36.678C171.49 36.7713 171.458 36.8507 171.392 36.916C171.336 36.972 171.262 37 171.168 37H170.51ZM179.83 37C179.737 37 179.657 36.972 179.592 36.916C179.536 36.8507 179.508 36.7713 179.508 36.678V30.84H177.072C176.979 30.84 176.899 30.812 176.834 30.756C176.778 30.6907 176.75 30.6113 176.75 30.518V30.042C176.75 29.9487 176.778 29.874 176.834 29.818C176.899 29.7527 176.979 29.72 177.072 29.72H183.232C183.325 29.72 183.4 29.7527 183.456 29.818C183.521 29.874 183.554 29.9487 183.554 30.042V30.518C183.554 30.6113 183.521 30.6907 183.456 30.756C183.4 30.812 183.325 30.84 183.232 30.84H180.796V36.678C180.796 36.7713 180.768 36.8507 180.712 36.916C180.656 36.972 180.577 37 180.474 37H179.83ZM185.014 39.66C184.921 39.66 184.842 39.6273 184.776 39.562C184.72 39.506 184.692 39.4313 184.692 39.338V30.042C184.692 29.9487 184.72 29.874 184.776 29.818C184.842 29.7527 184.921 29.72 185.014 29.72H185.658C185.752 29.72 185.826 29.7527 185.882 29.818C185.948 29.874 185.98 29.9487 185.98 30.042V30.658C186.204 30.35 186.503 30.0933 186.876 29.888C187.25 29.6827 187.716 29.58 188.276 29.58C188.799 29.58 189.242 29.6687 189.606 29.846C189.98 30.0233 190.283 30.266 190.516 30.574C190.759 30.882 190.941 31.232 191.062 31.624C191.184 32.016 191.249 32.436 191.258 32.884C191.268 33.0333 191.272 33.192 191.272 33.36C191.272 33.528 191.268 33.6867 191.258 33.836C191.249 34.2747 191.184 34.6947 191.062 35.096C190.941 35.488 190.759 35.838 190.516 36.146C190.283 36.4447 189.98 36.6873 189.606 36.874C189.242 37.0513 188.799 37.14 188.276 37.14C187.735 37.14 187.278 37.042 186.904 36.846C186.54 36.6407 186.242 36.3887 186.008 36.09V39.338C186.008 39.4313 185.98 39.506 185.924 39.562C185.868 39.6273 185.789 39.66 185.686 39.66H185.014ZM187.982 36.006C188.468 36.006 188.846 35.9033 189.116 35.698C189.396 35.4833 189.597 35.208 189.718 34.872C189.84 34.5267 189.91 34.158 189.928 33.766C189.938 33.4953 189.938 33.2247 189.928 32.954C189.91 32.562 189.84 32.198 189.718 31.862C189.597 31.5167 189.396 31.2413 189.116 31.036C188.846 30.8213 188.468 30.714 187.982 30.714C187.525 30.714 187.152 30.8213 186.862 31.036C186.582 31.2507 186.372 31.526 186.232 31.862C186.102 32.1887 186.027 32.5247 186.008 32.87C185.999 33.0193 185.994 33.1967 185.994 33.402C185.994 33.6073 185.999 33.7893 186.008 33.948C186.018 34.2747 186.092 34.5967 186.232 34.914C186.382 35.2313 186.601 35.4927 186.89 35.698C187.18 35.9033 187.544 36.006 187.982 36.006ZM195.91 37.14C195.201 37.14 194.608 37.0047 194.132 36.734C193.656 36.4633 193.292 36.09 193.04 35.614C192.788 35.1287 192.648 34.578 192.62 33.962C192.611 33.8033 192.606 33.6027 192.606 33.36C192.606 33.108 192.611 32.9073 192.62 32.758C192.648 32.1327 192.788 31.582 193.04 31.106C193.301 30.63 193.67 30.2567 194.146 29.986C194.622 29.7153 195.21 29.58 195.91 29.58C196.61 29.58 197.198 29.7153 197.674 29.986C198.15 30.2567 198.514 30.63 198.766 31.106C199.027 31.582 199.172 32.1327 199.2 32.758C199.209 32.9073 199.214 33.108 199.214 33.36C199.214 33.6027 199.209 33.8033 199.2 33.962C199.172 34.578 199.032 35.1287 198.78 35.614C198.528 36.09 198.164 36.4633 197.688 36.734C197.212 37.0047 196.619 37.14 195.91 37.14ZM195.91 36.062C196.489 36.062 196.951 35.88 197.296 35.516C197.641 35.1427 197.828 34.6013 197.856 33.892C197.865 33.752 197.87 33.5747 197.87 33.36C197.87 33.1453 197.865 32.968 197.856 32.828C197.828 32.1187 197.641 31.582 197.296 31.218C196.951 30.8447 196.489 30.658 195.91 30.658C195.331 30.658 194.865 30.8447 194.51 31.218C194.165 31.582 193.983 32.1187 193.964 32.828C193.955 32.968 193.95 33.1453 193.95 33.36C193.95 33.5747 193.955 33.752 193.964 33.892C193.983 34.6013 194.165 35.1427 194.51 35.516C194.865 35.88 195.331 36.062 195.91 36.062ZM201.199 37C201.106 37 201.026 36.972 200.961 36.916C200.905 36.8507 200.877 36.7713 200.877 36.678V30.042C200.877 29.9487 200.905 29.874 200.961 29.818C201.026 29.7527 201.106 29.72 201.199 29.72H201.871C201.964 29.72 202.039 29.7527 202.095 29.818C202.151 29.874 202.179 29.9487 202.179 30.042V32.73H206.001V30.042C206.001 29.9487 206.029 29.874 206.085 29.818C206.15 29.7527 206.23 29.72 206.323 29.72H206.981C207.074 29.72 207.149 29.7527 207.205 29.818C207.27 29.874 207.303 29.9487 207.303 30.042V36.678C207.303 36.7713 207.27 36.8507 207.205 36.916C207.149 36.972 207.074 37 206.981 37H206.323C206.23 37 206.15 36.972 206.085 36.916C206.029 36.8507 206.001 36.7713 206.001 36.678V33.85H202.179V36.678C202.179 36.7713 202.151 36.8507 202.095 36.916C202.039 36.972 201.964 37 201.871 37H201.199ZM209.64 37C209.547 37 209.468 36.972 209.402 36.916C209.346 36.8507 209.318 36.7713 209.318 36.678V30.042C209.318 29.9487 209.346 29.874 209.402 29.818C209.468 29.7527 209.547 29.72 209.64 29.72H210.312C210.406 29.72 210.48 29.7527 210.536 29.818C210.592 29.874 210.62 29.9487 210.62 30.042V32.73H214.442V30.042C214.442 29.9487 214.47 29.874 214.526 29.818C214.592 29.7527 214.671 29.72 214.764 29.72H215.422C215.516 29.72 215.59 29.7527 215.646 29.818C215.712 29.874 215.744 29.9487 215.744 30.042V36.678C215.744 36.7713 215.712 36.8507 215.646 36.916C215.59 36.972 215.516 37 215.422 37H214.764C214.671 37 214.592 36.972 214.526 36.916C214.47 36.8507 214.442 36.7713 214.442 36.678V33.85H210.62V36.678C210.62 36.7713 210.592 36.8507 210.536 36.916C210.48 36.972 210.406 37 210.312 37H209.64ZM220.742 37.14C220.032 37.14 219.44 37.0047 218.964 36.734C218.488 36.4633 218.124 36.09 217.872 35.614C217.62 35.1287 217.48 34.578 217.452 33.962C217.442 33.8033 217.438 33.6027 217.438 33.36C217.438 33.108 217.442 32.9073 217.452 32.758C217.48 32.1327 217.62 31.582 217.872 31.106C218.133 30.63 218.502 30.2567 218.978 29.986C219.454 29.7153 220.042 29.58 220.742 29.58C221.442 29.58 222.03 29.7153 222.506 29.986C222.982 30.2567 223.346 30.63 223.598 31.106C223.859 31.582 224.004 32.1327 224.032 32.758C224.041 32.9073 224.046 33.108 224.046 33.36C224.046 33.6027 224.041 33.8033 224.032 33.962C224.004 34.578 223.864 35.1287 223.612 35.614C223.36 36.09 222.996 36.4633 222.52 36.734C222.044 37.0047 221.451 37.14 220.742 37.14ZM220.742 36.062C221.32 36.062 221.782 35.88 222.128 35.516C222.473 35.1427 222.66 34.6013 222.688 33.892C222.697 33.752 222.702 33.5747 222.702 33.36C222.702 33.1453 222.697 32.968 222.688 32.828C222.66 32.1187 222.473 31.582 222.128 31.218C221.782 30.8447 221.32 30.658 220.742 30.658C220.163 30.658 219.696 30.8447 219.342 31.218C218.996 31.582 218.814 32.1187 218.796 32.828C218.786 32.968 218.782 33.1453 218.782 33.36C218.782 33.5747 218.786 33.752 218.796 33.892C218.814 34.6013 218.996 35.1427 219.342 35.516C219.696 35.88 220.163 36.062 220.742 36.062ZM226.031 37C225.937 37 225.858 36.972 225.793 36.916C225.737 36.8507 225.709 36.7713 225.709 36.678V30.042C225.709 29.9487 225.737 29.874 225.793 29.818C225.858 29.7527 225.937 29.72 226.031 29.72H230.217C230.31 29.72 230.385 29.7527 230.441 29.818C230.497 29.874 230.525 29.9487 230.525 30.042V30.518C230.525 30.6113 230.497 30.6907 230.441 30.756C230.385 30.812 230.31 30.84 230.217 30.84H227.011V36.678C227.011 36.7713 226.983 36.8507 226.927 36.916C226.871 36.972 226.796 37 226.703 37H226.031ZM234.616 37.14C233.907 37.14 233.314 37.0047 232.838 36.734C232.362 36.4633 231.998 36.09 231.746 35.614C231.494 35.1287 231.354 34.578 231.326 33.962C231.317 33.8033 231.312 33.6027 231.312 33.36C231.312 33.108 231.317 32.9073 231.326 32.758C231.354 32.1327 231.494 31.582 231.746 31.106C232.008 30.63 232.376 30.2567 232.852 29.986C233.328 29.7153 233.916 29.58 234.616 29.58C235.316 29.58 235.904 29.7153 236.38 29.986C236.856 30.2567 237.22 30.63 237.472 31.106C237.734 31.582 237.878 32.1327 237.906 32.758C237.916 32.9073 237.92 33.108 237.92 33.36C237.92 33.6027 237.916 33.8033 237.906 33.962C237.878 34.578 237.738 35.1287 237.486 35.614C237.234 36.09 236.87 36.4633 236.394 36.734C235.918 37.0047 235.326 37.14 234.616 37.14ZM234.616 36.062C235.195 36.062 235.657 35.88 236.002 35.516C236.348 35.1427 236.534 34.6013 236.562 33.892C236.572 33.752 236.576 33.5747 236.576 33.36C236.576 33.1453 236.572 32.968 236.562 32.828C236.534 32.1187 236.348 31.582 236.002 31.218C235.657 30.8447 235.195 30.658 234.616 30.658C234.038 30.658 233.571 30.8447 233.216 31.218C232.871 31.582 232.689 32.1187 232.67 32.828C232.661 32.968 232.656 33.1453 232.656 33.36C232.656 33.5747 232.661 33.752 232.67 33.892C232.689 34.6013 232.871 35.1427 233.216 35.516C233.571 35.88 234.038 36.062 234.616 36.062ZM243.429 37C243.326 37 243.247 36.972 243.191 36.916C243.135 36.8507 243.107 36.7713 243.107 36.678V27.536C243.107 27.4333 243.135 27.354 243.191 27.298C243.247 27.2327 243.326 27.2 243.429 27.2H250.331C250.434 27.2 250.513 27.2327 250.569 27.298C250.634 27.354 250.667 27.4333 250.667 27.536V36.678C250.667 36.7713 250.634 36.8507 250.569 36.916C250.513 36.972 250.434 37 250.331 37H249.617C249.524 37 249.444 36.972 249.379 36.916C249.323 36.8507 249.295 36.7713 249.295 36.678V28.46H244.479V36.678C244.479 36.7713 244.446 36.8507 244.381 36.916C244.325 36.972 244.246 37 244.143 37H243.429ZM253.151 39.66C253.058 39.66 252.979 39.6273 252.913 39.562C252.857 39.506 252.829 39.4313 252.829 39.338V30.042C252.829 29.9487 252.857 29.874 252.913 29.818C252.979 29.7527 253.058 29.72 253.151 29.72H253.795C253.889 29.72 253.963 29.7527 254.019 29.818C254.085 29.874 254.117 29.9487 254.117 30.042V30.658C254.341 30.35 254.64 30.0933 255.013 29.888C255.387 29.6827 255.853 29.58 256.413 29.58C256.936 29.58 257.379 29.6687 257.743 29.846C258.117 30.0233 258.42 30.266 258.653 30.574C258.896 30.882 259.078 31.232 259.199 31.624C259.321 32.016 259.386 32.436 259.395 32.884C259.405 33.0333 259.409 33.192 259.409 33.36C259.409 33.528 259.405 33.6867 259.395 33.836C259.386 34.2747 259.321 34.6947 259.199 35.096C259.078 35.488 258.896 35.838 258.653 36.146C258.42 36.4447 258.117 36.6873 257.743 36.874C257.379 37.0513 256.936 37.14 256.413 37.14C255.872 37.14 255.415 37.042 255.041 36.846C254.677 36.6407 254.379 36.3887 254.145 36.09V39.338C254.145 39.4313 254.117 39.506 254.061 39.562C254.005 39.6273 253.926 39.66 253.823 39.66H253.151ZM256.119 36.006C256.605 36.006 256.983 35.9033 257.253 35.698C257.533 35.4833 257.734 35.208 257.855 34.872C257.977 34.5267 258.047 34.158 258.065 33.766C258.075 33.4953 258.075 33.2247 258.065 32.954C258.047 32.562 257.977 32.198 257.855 31.862C257.734 31.5167 257.533 31.2413 257.253 31.036C256.983 30.8213 256.605 30.714 256.119 30.714C255.662 30.714 255.289 30.8213 254.999 31.036C254.719 31.2507 254.509 31.526 254.369 31.862C254.239 32.1887 254.164 32.5247 254.145 32.87C254.136 33.0193 254.131 33.1967 254.131 33.402C254.131 33.6073 254.136 33.7893 254.145 33.948C254.155 34.2747 254.229 34.5967 254.369 34.914C254.519 35.2313 254.738 35.4927 255.027 35.698C255.317 35.9033 255.681 36.006 256.119 36.006ZM263.095 37.14C262.629 37.14 262.204 37.0467 261.821 36.86C261.439 36.6733 261.131 36.4213 260.897 36.104C260.664 35.7867 260.547 35.4273 260.547 35.026C260.547 34.382 260.809 33.8687 261.331 33.486C261.854 33.1033 262.535 32.8513 263.375 32.73L265.461 32.436V32.03C265.461 31.582 265.331 31.232 265.069 30.98C264.817 30.728 264.402 30.602 263.823 30.602C263.403 30.602 263.063 30.686 262.801 30.854C262.549 31.022 262.372 31.2367 262.269 31.498C262.213 31.638 262.115 31.708 261.975 31.708H261.345C261.243 31.708 261.163 31.68 261.107 31.624C261.061 31.5587 261.037 31.484 261.037 31.4C261.037 31.26 261.089 31.0873 261.191 30.882C261.303 30.6767 261.471 30.476 261.695 30.28C261.919 30.084 262.204 29.9207 262.549 29.79C262.904 29.65 263.333 29.58 263.837 29.58C264.397 29.58 264.869 29.6547 265.251 29.804C265.634 29.944 265.933 30.1353 266.147 30.378C266.371 30.6207 266.53 30.896 266.623 31.204C266.726 31.512 266.777 31.8247 266.777 32.142V36.678C266.777 36.7713 266.745 36.8507 266.679 36.916C266.623 36.972 266.549 37 266.455 37H265.811C265.709 37 265.629 36.972 265.573 36.916C265.517 36.8507 265.489 36.7713 265.489 36.678V36.076C265.368 36.244 265.205 36.412 264.999 36.58C264.794 36.7387 264.537 36.874 264.229 36.986C263.921 37.0887 263.543 37.14 263.095 37.14ZM263.389 36.09C263.772 36.09 264.122 36.0107 264.439 35.852C264.757 35.684 265.004 35.4273 265.181 35.082C265.368 34.7367 265.461 34.3027 265.461 33.78V33.388L263.837 33.626C263.175 33.7193 262.675 33.878 262.339 34.102C262.003 34.3167 261.835 34.592 261.835 34.928C261.835 35.1893 261.91 35.4087 262.059 35.586C262.218 35.754 262.414 35.88 262.647 35.964C262.89 36.048 263.137 36.09 263.389 36.09ZM269.022 37C268.929 37 268.849 36.972 268.784 36.916C268.728 36.8507 268.7 36.7713 268.7 36.678V30.042C268.7 29.9487 268.728 29.874 268.784 29.818C268.849 29.7527 268.929 29.72 269.022 29.72H271.934C272.811 29.72 273.469 29.8973 273.908 30.252C274.356 30.6067 274.58 31.0827 274.58 31.68C274.58 32.1 274.501 32.4173 274.342 32.632C274.183 32.8467 273.959 33.0287 273.67 33.178C274.025 33.3273 274.291 33.57 274.468 33.906C274.655 34.2327 274.748 34.5733 274.748 34.928C274.748 35.6 274.51 36.1133 274.034 36.468C273.558 36.8227 272.895 37 272.046 37H269.022ZM269.988 35.978H271.934C272.382 35.978 272.741 35.894 273.012 35.726C273.292 35.5487 273.432 35.2827 273.432 34.928C273.432 34.5547 273.306 34.284 273.054 34.116C272.802 33.9387 272.429 33.85 271.934 33.85H269.988V35.978ZM269.988 32.814H271.85C272.298 32.814 272.653 32.716 272.914 32.52C273.185 32.324 273.32 32.0487 273.32 31.694C273.32 31.33 273.185 31.0827 272.914 30.952C272.653 30.812 272.298 30.742 271.85 30.742H269.988V32.814ZM276.766 37C276.682 37 276.607 36.972 276.542 36.916C276.486 36.8507 276.458 36.7807 276.458 36.706V30.042C276.458 29.9487 276.486 29.874 276.542 29.818C276.607 29.7527 276.686 29.72 276.78 29.72H277.452C277.545 29.72 277.62 29.7527 277.676 29.818C277.732 29.874 277.76 29.9487 277.76 30.042V35.978L277.396 35.6L281.638 29.93C281.684 29.874 281.736 29.8273 281.792 29.79C281.848 29.7433 281.918 29.72 282.002 29.72H282.646C282.72 29.72 282.786 29.748 282.842 29.804C282.907 29.86 282.94 29.9253 282.94 30V36.678C282.94 36.7713 282.907 36.8507 282.842 36.916C282.786 36.972 282.711 37 282.618 37H281.96C281.857 37 281.778 36.972 281.722 36.916C281.666 36.8507 281.638 36.7713 281.638 36.678V31.092L282.03 31.078L277.76 36.79C277.722 36.8367 277.676 36.8833 277.62 36.93C277.564 36.9767 277.489 37 277.396 37H276.766ZM287.125 37C287.031 37 286.952 36.972 286.887 36.916C286.831 36.8507 286.803 36.7713 286.803 36.678V30.84H284.367C284.273 30.84 284.194 30.812 284.129 30.756C284.073 30.6907 284.045 30.6113 284.045 30.518V30.042C284.045 29.9487 284.073 29.874 284.129 29.818C284.194 29.7527 284.273 29.72 284.367 29.72H290.527C290.62 29.72 290.695 29.7527 290.751 29.818C290.816 29.874 290.849 29.9487 290.849 30.042V30.518C290.849 30.6113 290.816 30.6907 290.751 30.756C290.695 30.812 290.62 30.84 290.527 30.84H288.091V36.678C288.091 36.7713 288.063 36.8507 288.007 36.916C287.951 36.972 287.871 37 287.769 37H287.125ZM294.871 37.14C293.91 37.14 293.144 36.846 292.575 36.258C292.006 35.6607 291.693 34.8487 291.637 33.822C291.628 33.7007 291.623 33.5467 291.623 33.36C291.623 33.164 291.628 33.0053 291.637 32.884C291.674 32.2213 291.828 31.6427 292.099 31.148C292.37 30.644 292.738 30.2567 293.205 29.986C293.681 29.7153 294.236 29.58 294.871 29.58C295.58 29.58 296.173 29.7293 296.649 30.028C297.134 30.3267 297.503 30.7513 297.755 31.302C298.007 31.8527 298.133 32.4967 298.133 33.234V33.472C298.133 33.5747 298.1 33.654 298.035 33.71C297.979 33.766 297.904 33.794 297.811 33.794H292.967C292.967 33.8033 292.967 33.822 292.967 33.85C292.967 33.878 292.967 33.9013 292.967 33.92C292.986 34.3027 293.07 34.662 293.219 34.998C293.368 35.3247 293.583 35.5907 293.863 35.796C294.143 36.0013 294.479 36.104 294.871 36.104C295.207 36.104 295.487 36.0527 295.711 35.95C295.935 35.8473 296.117 35.7353 296.257 35.614C296.397 35.4833 296.49 35.3853 296.537 35.32C296.621 35.1987 296.686 35.1287 296.733 35.11C296.78 35.082 296.854 35.068 296.957 35.068H297.629C297.722 35.068 297.797 35.096 297.853 35.152C297.918 35.1987 297.946 35.2687 297.937 35.362C297.928 35.502 297.853 35.6747 297.713 35.88C297.573 36.076 297.372 36.272 297.111 36.468C296.85 36.664 296.532 36.8273 296.159 36.958C295.786 37.0793 295.356 37.14 294.871 37.14ZM292.967 32.828H296.803V32.786C296.803 32.366 296.724 31.9927 296.565 31.666C296.416 31.3393 296.196 31.0827 295.907 30.896C295.618 30.7 295.272 30.602 294.871 30.602C294.47 30.602 294.124 30.7 293.835 30.896C293.555 31.0827 293.34 31.3393 293.191 31.666C293.042 31.9927 292.967 32.366 292.967 32.786V32.828ZM299.367 37C299.274 37 299.194 36.9673 299.129 36.902C299.064 36.8367 299.031 36.7573 299.031 36.664V36.146C299.031 35.95 299.129 35.8473 299.325 35.838C299.614 35.8287 299.857 35.6933 300.053 35.432C300.249 35.1613 300.398 34.7367 300.501 34.158C300.604 33.57 300.655 32.7953 300.655 31.834V30.042C300.655 29.9487 300.683 29.874 300.739 29.818C300.804 29.7527 300.884 29.72 300.977 29.72H305.429C305.522 29.72 305.597 29.7527 305.653 29.818C305.718 29.874 305.751 29.9487 305.751 30.042V36.678C305.751 36.7713 305.718 36.8507 305.653 36.916C305.597 36.972 305.522 37 305.429 37H304.757C304.664 37 304.589 36.972 304.533 36.916C304.477 36.8507 304.449 36.7713 304.449 36.678V30.84H301.929V31.988C301.929 32.884 301.878 33.654 301.775 34.298C301.672 34.9327 301.514 35.4507 301.299 35.852C301.094 36.244 300.828 36.5333 300.501 36.72C300.184 36.9067 299.806 37 299.367 37ZM308.07 37C307.977 37 307.897 36.972 307.832 36.916C307.776 36.8507 307.748 36.7713 307.748 36.678V30.042C307.748 29.9487 307.776 29.874 307.832 29.818C307.897 29.7527 307.977 29.72 308.07 29.72H308.742C308.835 29.72 308.91 29.7527 308.966 29.818C309.031 29.874 309.064 29.9487 309.064 30.042V32.1H310.632C311.584 32.1 312.279 32.324 312.718 32.772C313.157 33.22 313.376 33.8267 313.376 34.592C313.376 35.4133 313.133 36.02 312.648 36.412C312.163 36.804 311.435 37 310.464 37H308.07ZM309.05 35.95H310.52C311.08 35.95 311.491 35.852 311.752 35.656C312.013 35.4507 312.144 35.096 312.144 34.592C312.144 34.1067 312.018 33.7473 311.766 33.514C311.514 33.2713 311.099 33.15 310.52 33.15H309.05V35.95ZM317.612 37.14C316.949 37.14 316.375 37.014 315.89 36.762C315.414 36.5007 315.045 36.132 314.784 35.656C314.522 35.1707 314.382 34.592 314.364 33.92C314.354 33.78 314.35 33.5933 314.35 33.36C314.35 33.1267 314.354 32.94 314.364 32.8C314.382 32.128 314.522 31.554 314.784 31.078C315.045 30.5927 315.414 30.224 315.89 29.972C316.375 29.7107 316.949 29.58 317.612 29.58C318.153 29.58 318.615 29.6547 318.998 29.804C319.39 29.9533 319.712 30.1447 319.964 30.378C320.216 30.6113 320.402 30.8633 320.524 31.134C320.654 31.4047 320.724 31.6613 320.734 31.904C320.743 31.9973 320.715 32.072 320.65 32.128C320.584 32.184 320.505 32.212 320.412 32.212H319.74C319.646 32.212 319.576 32.1933 319.53 32.156C319.483 32.1093 319.436 32.0347 319.39 31.932C319.222 31.4747 318.993 31.1527 318.704 30.966C318.414 30.7793 318.055 30.686 317.626 30.686C317.066 30.686 316.608 30.8587 316.254 31.204C315.908 31.5493 315.722 32.1047 315.694 32.87C315.684 33.206 315.684 33.5327 315.694 33.85C315.722 34.6247 315.908 35.1847 316.254 35.53C316.608 35.866 317.066 36.034 317.626 36.034C318.055 36.034 318.414 35.9407 318.704 35.754C318.993 35.5673 319.222 35.2453 319.39 34.788C319.436 34.6853 319.483 34.6153 319.53 34.578C319.576 34.5313 319.646 34.508 319.74 34.508H320.412C320.505 34.508 320.584 34.536 320.65 34.592C320.715 34.648 320.743 34.7227 320.734 34.816C320.724 35.012 320.682 35.2127 320.608 35.418C320.533 35.6233 320.412 35.8333 320.244 36.048C320.085 36.2533 319.884 36.44 319.642 36.608C319.399 36.7667 319.105 36.8973 318.76 37C318.424 37.0933 318.041 37.14 317.612 37.14ZM324.532 37C324.439 37 324.36 36.972 324.294 36.916C324.238 36.8507 324.21 36.7713 324.21 36.678V30.84H321.774C321.681 30.84 321.602 30.812 321.536 30.756C321.48 30.6907 321.452 30.6113 321.452 30.518V30.042C321.452 29.9487 321.48 29.874 321.536 29.818C321.602 29.7527 321.681 29.72 321.774 29.72H327.934C328.028 29.72 328.102 29.7527 328.158 29.818C328.224 29.874 328.256 29.9487 328.256 30.042V30.518C328.256 30.6113 328.224 30.6907 328.158 30.756C328.102 30.812 328.028 30.84 327.934 30.84H325.498V36.678C325.498 36.7713 325.47 36.8507 325.414 36.916C325.358 36.972 325.279 37 325.176 37H324.532ZM329.702 37C329.609 37 329.53 36.972 329.464 36.916C329.408 36.8507 329.38 36.7713 329.38 36.678V30.042C329.38 29.9487 329.408 29.874 329.464 29.818C329.53 29.7527 329.609 29.72 329.702 29.72H332.614C333.492 29.72 334.15 29.8973 334.588 30.252C335.036 30.6067 335.26 31.0827 335.26 31.68C335.26 32.1 335.181 32.4173 335.022 32.632C334.864 32.8467 334.64 33.0287 334.35 33.178C334.705 33.3273 334.971 33.57 335.148 33.906C335.335 34.2327 335.428 34.5733 335.428 34.928C335.428 35.6 335.19 36.1133 334.714 36.468C334.238 36.8227 333.576 37 332.726 37H329.702ZM330.668 35.978H332.614C333.062 35.978 333.422 35.894 333.692 35.726C333.972 35.5487 334.112 35.2827 334.112 34.928C334.112 34.5547 333.986 34.284 333.734 34.116C333.482 33.9387 333.109 33.85 332.614 33.85H330.668V35.978ZM330.668 32.814H332.53C332.978 32.814 333.333 32.716 333.594 32.52C333.865 32.324 334 32.0487 334 31.694C334 31.33 333.865 31.0827 333.594 30.952C333.333 30.812 332.978 30.742 332.53 30.742H330.668V32.814ZM339.168 37.14C338.701 37.14 338.277 37.0467 337.894 36.86C337.511 36.6733 337.203 36.4213 336.97 36.104C336.737 35.7867 336.62 35.4273 336.62 35.026C336.62 34.382 336.881 33.8687 337.404 33.486C337.927 33.1033 338.608 32.8513 339.448 32.73L341.534 32.436V32.03C341.534 31.582 341.403 31.232 341.142 30.98C340.89 30.728 340.475 30.602 339.896 30.602C339.476 30.602 339.135 30.686 338.874 30.854C338.622 31.022 338.445 31.2367 338.342 31.498C338.286 31.638 338.188 31.708 338.048 31.708H337.418C337.315 31.708 337.236 31.68 337.18 31.624C337.133 31.5587 337.11 31.484 337.11 31.4C337.11 31.26 337.161 31.0873 337.264 30.882C337.376 30.6767 337.544 30.476 337.768 30.28C337.992 30.084 338.277 29.9207 338.622 29.79C338.977 29.65 339.406 29.58 339.91 29.58C340.47 29.58 340.941 29.6547 341.324 29.804C341.707 29.944 342.005 30.1353 342.22 30.378C342.444 30.6207 342.603 30.896 342.696 31.204C342.799 31.512 342.85 31.8247 342.85 32.142V36.678C342.85 36.7713 342.817 36.8507 342.752 36.916C342.696 36.972 342.621 37 342.528 37H341.884C341.781 37 341.702 36.972 341.646 36.916C341.59 36.8507 341.562 36.7713 341.562 36.678V36.076C341.441 36.244 341.277 36.412 341.072 36.58C340.867 36.7387 340.61 36.874 340.302 36.986C339.994 37.0887 339.616 37.14 339.168 37.14ZM339.462 36.09C339.845 36.09 340.195 36.0107 340.512 35.852C340.829 35.684 341.077 35.4273 341.254 35.082C341.441 34.7367 341.534 34.3027 341.534 33.78V33.388L339.91 33.626C339.247 33.7193 338.748 33.878 338.412 34.102C338.076 34.3167 337.908 34.592 337.908 34.928C337.908 35.1893 337.983 35.4087 338.132 35.586C338.291 35.754 338.487 35.88 338.72 35.964C338.963 36.048 339.21 36.09 339.462 36.09Z" fill="white"/>
</g>
</svg>
